<svg xmlns="http://www.w3.org/2000/svg" width="16.558" height="16.558" viewBox="0 0 16.558 16.558">
  <defs>
    <style>
      .cls-1 {
        fill: #333;
      }
    </style>
  </defs>
  <path id="facebook-square" class="cls-1" d="M14.784,32H1.774A1.774,1.774,0,0,0,0,33.774v13.01a1.774,1.774,0,0,0,1.774,1.774H6.847V42.929H4.518v-2.65H6.847V38.26a3.234,3.234,0,0,1,3.462-3.566,14.107,14.107,0,0,1,2.052.179v2.255H11.205a1.325,1.325,0,0,0-1.494,1.431v1.721h2.542l-.407,2.65H9.711v5.629h5.073a1.774,1.774,0,0,0,1.774-1.774V33.774A1.774,1.774,0,0,0,14.784,32Z" transform="translate(0 -32)"/>
</svg>
