<svg xmlns="http://www.w3.org/2000/svg" width="21.119" height="21.119" viewBox="0 0 21.119 21.119">
  <path id="Unión_2" data-name="Unión 2" d="M6.206,21.055a7.739,7.739,0,0,1-2.563-.491,5.161,5.161,0,0,1-1.87-1.218,5.161,5.161,0,0,1-1.218-1.87,7.764,7.764,0,0,1-.491-2.563C.012,13.786,0,13.427,0,10.559S.012,7.332.064,6.206a7.766,7.766,0,0,1,.49-2.563,5.176,5.176,0,0,1,1.219-1.87A5.161,5.161,0,0,1,3.642.555,7.739,7.739,0,0,1,6.206.064C7.332.012,7.692,0,10.56,0s3.227.012,4.353.064a7.766,7.766,0,0,1,2.563.49,5.176,5.176,0,0,1,1.87,1.219,5.161,5.161,0,0,1,1.218,1.87,7.739,7.739,0,0,1,.491,2.563c.051,1.127.064,1.486.064,4.354s-.012,3.227-.064,4.353a7.739,7.739,0,0,1-.491,2.563,5.4,5.4,0,0,1-3.088,3.088,7.739,7.739,0,0,1-2.563.491c-1.126.051-1.485.064-4.353.064S7.332,21.106,6.206,21.055ZM6.292,1.964a5.854,5.854,0,0,0-1.96.363,3.276,3.276,0,0,0-1.215.79,3.276,3.276,0,0,0-.79,1.215,5.853,5.853,0,0,0-.363,1.96C1.914,7.406,1.9,7.74,1.9,10.56s.01,3.153.061,4.267a5.836,5.836,0,0,0,.363,1.961A3.28,3.28,0,0,0,3.117,18a3.28,3.28,0,0,0,1.214.79,5.842,5.842,0,0,0,1.961.363c1.113.05,1.447.062,4.268.062s3.153-.011,4.267-.062a5.836,5.836,0,0,0,1.961-.363,3.5,3.5,0,0,0,2-2,5.861,5.861,0,0,0,.363-1.961c.05-1.113.061-1.447.061-4.267s-.01-3.154-.061-4.268a5.854,5.854,0,0,0-.363-1.96A3.266,3.266,0,0,0,18,3.117a3.284,3.284,0,0,0-1.213-.79,5.866,5.866,0,0,0-1.961-.363c-1.113-.05-1.447-.061-4.267-.061S7.406,1.913,6.292,1.964Zm-1.155,8.6a5.422,5.422,0,1,1,5.422,5.422A5.422,5.422,0,0,1,5.137,10.56Zm1.9,0a3.52,3.52,0,1,0,3.52-3.52A3.52,3.52,0,0,0,7.04,10.559Zm7.888-5.636A1.267,1.267,0,1,1,16.2,6.19,1.268,1.268,0,0,1,14.928,4.923Z" fill="#e30a18"/>
</svg>
