<svg xmlns="http://www.w3.org/2000/svg" width="20.863" height="20.863" viewBox="0 0 20.863 20.863">
  <path id="facebook-square" d="M18.627,32H2.235A2.235,2.235,0,0,0,0,34.235V50.627a2.235,2.235,0,0,0,2.235,2.235H8.627V45.77H5.693V42.431H8.627V39.887c0-2.894,1.723-4.493,4.362-4.493a17.774,17.774,0,0,1,2.585.225V38.46H14.118a1.669,1.669,0,0,0-1.882,1.8v2.168h3.2l-.512,3.338H12.236v7.093h6.392a2.235,2.235,0,0,0,2.235-2.235V34.235A2.235,2.235,0,0,0,18.627,32Z" transform="translate(0 -32)" fill="#e30a18"/>
</svg>
