<svg xmlns="http://www.w3.org/2000/svg" width="16" height="16" viewBox="0 0 16 16">
  <path id="Unión_1" data-name="Unión 1" d="M4.7,15.952A5.863,5.863,0,0,1,2.76,15.58a3.91,3.91,0,0,1-1.417-.923A3.91,3.91,0,0,1,.42,13.24,5.882,5.882,0,0,1,.048,11.3C.009,10.445,0,10.172,0,8S.009,5.555.048,4.7A5.884,5.884,0,0,1,.42,2.76a3.922,3.922,0,0,1,.923-1.417A3.91,3.91,0,0,1,2.76.42,5.863,5.863,0,0,1,4.7.048C5.555.009,5.828,0,8,0s2.445.009,3.3.048A5.884,5.884,0,0,1,13.24.42a3.922,3.922,0,0,1,1.417.923A3.91,3.91,0,0,1,15.58,2.76,5.863,5.863,0,0,1,15.952,4.7C15.991,5.555,16,5.828,16,8s-.009,2.445-.048,3.3a5.863,5.863,0,0,1-.372,1.942A4.088,4.088,0,0,1,13.24,15.58a5.863,5.863,0,0,1-1.942.372c-.853.039-1.125.048-3.3.048S5.555,15.991,4.7,15.952ZM4.767,1.488a4.435,4.435,0,0,0-1.485.275,2.482,2.482,0,0,0-.921.6,2.482,2.482,0,0,0-.6.921,4.435,4.435,0,0,0-.275,1.485c-.038.843-.046,1.1-.046,3.233s.008,2.389.046,3.232a4.421,4.421,0,0,0,.275,1.486,2.485,2.485,0,0,0,.6.92,2.485,2.485,0,0,0,.92.6,4.426,4.426,0,0,0,1.486.275c.843.038,1.1.047,3.233.047s2.389-.009,3.232-.047a4.421,4.421,0,0,0,1.486-.275,2.653,2.653,0,0,0,1.518-1.518,4.44,4.44,0,0,0,.275-1.486c.038-.843.046-1.1.046-3.232s-.008-2.39-.046-3.233a4.435,4.435,0,0,0-.275-1.485,2.474,2.474,0,0,0-.6-.921,2.488,2.488,0,0,0-.919-.6,4.444,4.444,0,0,0-1.486-.275c-.843-.038-1.1-.046-3.233-.046S5.611,1.45,4.767,1.488ZM3.892,8A4.108,4.108,0,1,1,8,12.108,4.108,4.108,0,0,1,3.892,8ZM5.334,8A2.667,2.667,0,1,0,8,5.333,2.666,2.666,0,0,0,5.334,8ZM11.31,3.73a.96.96,0,1,1,.96.959A.96.96,0,0,1,11.31,3.73Z" fill="#333"/>
</svg>
