<svg xmlns="http://www.w3.org/2000/svg" width="22" height="16" viewBox="0 0 22 16">
  <g id="Grupo_7" data-name="Grupo 7" transform="translate(-1.3 -6.89)">
    <path id="Trazado_33" data-name="Trazado 33" d="M32.571,30.542a.691.691,0,1,1,.5-1.175.668.668,0,0,1,.195.482A.692.692,0,0,1,32.571,30.542Z" transform="translate(-12.565 -9.395)" fill="#e30a18"/>
    <path id="Trazado_34" data-name="Trazado 34" d="M32.013,22.92a.433.433,0,1,0,.433.433.432.432,0,0,0-.433-.433Z" transform="translate(-12.441 -6.746)" fill="#e30a18"/>
    <path id="Trazado_35" data-name="Trazado 35" d="M32.137,23.736a.258.258,0,1,1,.257-.258A.258.258,0,0,1,32.137,23.736Z" transform="translate(-12.565 -6.87)" fill="#e30a18"/>
    <path id="Trazado_36" data-name="Trazado 36" d="M9.861,30.542a.691.691,0,1,1,.5-1.175.666.666,0,0,1,.195.482A.692.692,0,0,1,9.861,30.542Z" transform="translate(-3.238 -9.395)" fill="#e30a18"/>
    <path id="Trazado_37" data-name="Trazado 37" d="M19.981,22.89a2.427,2.427,0,0,1-2.442-2.4v-.174H9.067v.174a2.442,2.442,0,0,1-4.884,0v-.174H2.436A1.129,1.129,0,0,1,1.3,19.193V8.008A1.129,1.129,0,0,1,2.436,6.89H15.18a1.129,1.129,0,0,1,1.136,1.118v1.46h3.672a1.129,1.129,0,0,1,1.136,1.118,1.088,1.088,0,0,1-.351.807l-.074.07L21.5,14.64l.114.019A1.972,1.972,0,0,1,23.3,16.613v2.58a1.114,1.114,0,0,1-.758,1.053l-.119.04v.2A2.427,2.427,0,0,1,19.981,22.89Zm.006-4.306a1.895,1.895,0,1,0,1.924,1.895A1.912,1.912,0,0,0,19.987,18.584Zm-13.362,0a1.895,1.895,0,1,0,1.924,1.895A1.912,1.912,0,0,0,6.625,18.584Zm13.362-.511a2.47,2.47,0,0,1,2.278,1.53l.086.216.187-.142a.606.606,0,0,0,.244-.5V16.864H21.294a.255.255,0,1,1,0-.511H22.78L22.7,16.12a1.492,1.492,0,0,0-1.4-.972H16.316V19.8h1.325l.042-.115A2.447,2.447,0,0,1,19.987,18.074Zm-13.362,0a2.448,2.448,0,0,1,2.3,1.606l.042.115H15.8V8.008a.608.608,0,0,0-.611-.6H2.436a.608.608,0,0,0-.612.6V19.193a.608.608,0,0,0,.612.6H4.278l.042-.115A2.448,2.448,0,0,1,6.625,18.074Zm11.182-5.161a.263.263,0,0,1,.185.075.255.255,0,0,1,0,.363l-1.3,1.282h4.277l-.741-2.926h-3.9v2.564l1.3-1.281A.26.26,0,0,1,17.807,12.913ZM16.316,11.19h3.672a.6.6,0,1,0,0-1.205H16.316Z" fill="#e30a18"/>
    <path id="Trazado_38" data-name="Trazado 38" d="M11.413,18.817a3.733,3.733,0,1,1,3.733-3.733A3.738,3.738,0,0,1,11.413,18.817Zm0-6.958a3.219,3.219,0,1,0,3.219,3.219A3.222,3.222,0,0,0,11.413,11.859Z" transform="translate(-2.615 -1.897)" fill="#e30a18"/>
    <path id="Trazado_39" data-name="Trazado 39" d="M13.877,16.563a.257.257,0,0,1-.257-.257V14.567a.257.257,0,0,1,.515,0v1.481h1.481a.257.257,0,1,1,0,.515Z" transform="translate(-5.066 -3.127)" fill="#e30a18"/>
  </g>
</svg>
