<svg xmlns="http://www.w3.org/2000/svg" width="17" height="18" viewBox="0 0 17 18">
  <g id="icon_pickup" transform="translate(-2.9 -0.998)">
    <path id="Trazado_30" data-name="Trazado 30" d="M19.743,4.968,11.513,1.023a.272.272,0,0,0-.23,0L3.052,4.968a.263.263,0,0,0-.152.238V14.79a.263.263,0,0,0,.152.238l8.231,3.945A.243.243,0,0,0,11.4,19a.339.339,0,0,0,.118-.024l8.231-3.945a.263.263,0,0,0,.152-.238V5.207a.3.3,0,0,0-.157-.238ZM11.4,1.553l7.618,3.653L16.8,6.267l-.044-.029L9.2,2.609ZM8.593,2.91,16.2,6.559l-1.558.749L7.04,3.66Zm7.79,4.145V9.818l-1.455.7V7.751Zm2.979,7.569-7.7,3.692v-9l1.837-.88a.26.26,0,0,0,.122-.35.264.264,0,0,0-.353-.122l-1.871.9L10.66,8.5a.264.264,0,0,0-.353.122.26.26,0,0,0,.122.35l.7.336v8.995l-7.7-3.682V5.63L9.293,8.441a.256.256,0,0,0,.118.024.264.264,0,0,0,.118-.5L3.777,5.207,6.413,3.942l7.976,3.824a0,0,0,0,0,0,0v3.162a.27.27,0,0,0,.122.224.3.3,0,0,0,.142.039.339.339,0,0,0,.118-.024l1.989-.953a.263.263,0,0,0,.152-.238V6.8l2.45-1.172v9Zm0,0" fill="#e30a18"/>
    <path id="Trazado_31" data-name="Trazado 31" d="M6.811,26.277,5.6,25.692a.265.265,0,1,0-.231.477l1.214.585a.255.255,0,0,0,.118.025.263.263,0,0,0,.113-.5Zm0,0" transform="translate(-1.177 -12.676)" fill="#e30a18"/>
    <path id="Trazado_32" data-name="Trazado 32" d="M7.932,24.243,5.606,23.122a.265.265,0,0,0-.231.477L7.7,24.72a.255.255,0,0,0,.118.025.263.263,0,0,0,.113-.5Zm0,0" transform="translate(-1.182 -11.36)" fill="#e30a18"/>
  </g>
</svg>
