<svg id="_004-lorry" data-name="004-lorry" xmlns="http://www.w3.org/2000/svg" width="47.828" height="33.48" viewBox="0 0 47.828 33.48">
  <g id="Grupo_500" data-name="Grupo 500" transform="translate(0 0)">
    <g id="Grupo_499" data-name="Grupo 499">
      <path id="Trazado_916" data-name="Trazado 916" d="M96.258,349.867a2.391,2.391,0,1,0,2.391,2.391A2.391,2.391,0,0,0,96.258,349.867Zm0,3.189a.8.8,0,1,1,.8-.8A.8.8,0,0,1,96.258,353.056Z" transform="translate(-85.098 -324.359)" fill="#e30a18"/>
      <path id="Trazado_917" data-name="Trazado 917" d="M369.324,349.867a2.391,2.391,0,1,0,2.391,2.391A2.391,2.391,0,0,0,369.324,349.867Zm0,3.189a.8.8,0,1,1,.8-.8A.8.8,0,0,1,369.324,353.056Z" transform="translate(-332.656 -324.359)" fill="#e30a18"/>
      <path id="Trazado_918" data-name="Trazado 918" d="M47.221,90.962,41.73,84.778a2.391,2.391,0,0,0-1.793-.8H32.683V79.191A2.394,2.394,0,0,0,30.291,76.8H2.391A2.394,2.394,0,0,0,0,79.191V99.917a.8.8,0,0,0,.8.8h.8v2.391A2.394,2.394,0,0,0,3.986,105.5H5.644a5.573,5.573,0,0,0,11.033,0H31.152a5.573,5.573,0,0,0,11.033,0h3.252a2.394,2.394,0,0,0,2.391-2.391V92.551A2.389,2.389,0,0,0,47.221,90.962ZM1.594,99.12V79.191a.8.8,0,0,1,.8-.8h27.9a.8.8,0,0,1,.8.8V99.12ZM5.644,103.9H3.986a.8.8,0,0,1-.8-.8v-2.391H7.262A5.565,5.565,0,0,0,5.644,103.9Zm5.516,4.783a3.986,3.986,0,1,1,3.986-3.986A3.986,3.986,0,0,1,11.16,108.686Zm7.971-4.783H16.676a5.565,5.565,0,0,0-1.619-3.189h4.074Zm7.174,0h-5.58v-3.189h5.58Zm4.847,0H27.9v-3.189h4.871A5.565,5.565,0,0,0,31.152,103.9Zm5.516,4.783a3.986,3.986,0,1,1,3.986-3.986A3.986,3.986,0,0,1,36.668,108.686Zm9.566-5.58a.8.8,0,0,1-.8.8H42.185a5.584,5.584,0,0,0-5.516-4.783H32.683V85.569h3.189V93.54a2.394,2.394,0,0,0,2.391,2.391h7.971Zm0-8.769H38.263a.8.8,0,0,1-.8-.8V85.569h2.471a.8.8,0,0,1,.6.266l5.493,6.186a.8.8,0,0,1,.2.53v1.786Z" transform="translate(0 -76.8)" fill="#e30a18"/>
    </g>
  </g>
</svg>
