<svg id="_002-padlock" data-name="002-padlock" xmlns="http://www.w3.org/2000/svg" width="29.196" height="40.493" viewBox="0 0 29.196 40.493">
  <g id="Grupo_496" data-name="Grupo 496" transform="translate(0)">
    <g id="Grupo_495" data-name="Grupo 495">
      <path id="Trazado_912" data-name="Trazado 912" d="M91.124,17.221V10.808a10.752,10.752,0,0,0-3.211-7.726A10.41,10.41,0,0,0,80.522,0h-.137A10.782,10.782,0,0,0,69.663,10.808v6.413a4.379,4.379,0,0,0-3.863,4.4v14.4a4.437,4.437,0,0,0,4.4,4.464H90.592A4.437,4.437,0,0,0,95,36.029v-14.4A4.4,4.4,0,0,0,91.124,17.221ZM71.371,10.808h.009a9.085,9.085,0,0,1,9.014-9.117H80.4a8.892,8.892,0,0,1,6.3,2.593,9.091,9.091,0,0,1,2.7,6.524v6.421H87.51V10.808a7.234,7.234,0,0,0-2.138-5.194,6.96,6.96,0,0,0-4.919-2.043H80.4A7.189,7.189,0,0,0,73.26,10.8v6.43H71.371Zm14.431,0v6.421H74.985V10.808A5.467,5.467,0,0,1,80.411,5.3h.052a5.265,5.265,0,0,1,3.717,1.545A5.534,5.534,0,0,1,85.8,10.808Zm7.554,25.247h0a2.722,2.722,0,0,1-2.721,2.721h-20.4a2.722,2.722,0,0,1-2.721-2.721V21.667a2.722,2.722,0,0,1,2.721-2.721h20.4a2.722,2.722,0,0,1,2.721,2.721V36.055Z" transform="translate(-65.8)" fill="#e30a18"/>
    </g>
  </g>
  <g id="Grupo_498" data-name="Grupo 498" transform="translate(11.495 26.088)">
    <g id="Grupo_497" data-name="Grupo 497">
      <path id="Trazado_913" data-name="Trazado 913" d="M205.769,306.141a3.095,3.095,0,1,0-3.829,3.829v2.4a.858.858,0,1,0,1.717,0v-2.4A3.087,3.087,0,0,0,205.769,306.141Zm-2.97,2.232a1.382,1.382,0,1,1,1.382-1.382A1.381,1.381,0,0,1,202.8,308.373Z" transform="translate(-199.7 -303.9)" fill="#e30a18"/>
    </g>
  </g>
</svg>
