<svg xmlns="http://www.w3.org/2000/svg" width="74.641" height="77.789" viewBox="0 0 74.641 77.789">
  <g id="descuento" transform="translate(-10.359 0.002)">
    <g id="Grupo_453" data-name="Grupo 453" transform="translate(10.359 -0.002)">
      <g id="Grupo_452" data-name="Grupo 452" transform="translate(0 0)">
        <path id="Trazado_649" data-name="Trazado 649" d="M81.4,39.9a2.28,2.28,0,0,1,0-2.015l2.9-5.935a6.753,6.753,0,0,0-2.914-8.967l-5.836-3.1a2.28,2.28,0,0,1-1.184-1.63l-1.141-6.507A6.753,6.753,0,0,0,65.6,6.207l-6.541.925a2.28,2.28,0,0,1-1.916-.623L52.394,1.916a6.752,6.752,0,0,0-9.429,0L38.217,6.51a2.28,2.28,0,0,1-1.916.623L29.76,6.207a6.752,6.752,0,0,0-7.628,5.542L20.99,18.256a2.28,2.28,0,0,1-1.184,1.63l-5.836,3.1a6.753,6.753,0,0,0-2.914,8.967l2.9,5.935a2.28,2.28,0,0,1,0,2.015l-2.9,5.935A6.753,6.753,0,0,0,13.97,54.8l5.836,3.1a2.28,2.28,0,0,1,1.184,1.63l1.141,6.507a6.749,6.749,0,0,0,6.657,5.611,6.937,6.937,0,0,0,.971-.069l6.541-.925a2.279,2.279,0,0,1,1.916.623l4.748,4.593a6.753,6.753,0,0,0,9.429,0l4.748-4.593a2.282,2.282,0,0,1,1.916-.623l6.541.925a6.752,6.752,0,0,0,7.628-5.542l1.141-6.507a2.28,2.28,0,0,1,1.184-1.63l5.836-3.1A6.753,6.753,0,0,0,84.3,45.835ZM79.286,50.839l-5.836,3.1a6.738,6.738,0,0,0-3.5,4.818l-1.141,6.507a2.285,2.285,0,0,1-2.581,1.875l-6.541-.925a6.736,6.736,0,0,0-5.664,1.84l-4.748,4.593a2.285,2.285,0,0,1-3.19,0l-4.748-4.593a6.731,6.731,0,0,0-4.7-1.909,6.887,6.887,0,0,0-.966.068l-6.541.925A2.285,2.285,0,0,1,26.55,65.26l-1.141-6.507a6.737,6.737,0,0,0-3.5-4.818l-5.836-3.1a2.285,2.285,0,0,1-.986-3.034l2.9-5.935a6.737,6.737,0,0,0,0-5.955l-2.9-5.935a2.285,2.285,0,0,1,.986-3.034l5.836-3.1a6.738,6.738,0,0,0,3.5-4.818l1.141-6.507a2.285,2.285,0,0,1,2.581-1.875l6.541.925a6.737,6.737,0,0,0,5.664-1.84l4.748-4.593a2.285,2.285,0,0,1,3.19,0l4.748,4.593a6.737,6.737,0,0,0,5.664,1.84l6.541-.925a2.285,2.285,0,0,1,2.581,1.875l1.141,6.507a6.737,6.737,0,0,0,3.5,4.818l5.836,3.1a2.285,2.285,0,0,1,.986,3.034l-2.9,5.935a6.738,6.738,0,0,0,0,5.955l2.9,5.935A2.285,2.285,0,0,1,79.286,50.839Z" transform="translate(-10.359 0.002)" fill="#fff"/>
      </g>
    </g>
    <g id="Grupo_455" data-name="Grupo 455" transform="translate(30.631 21.845)">
      <g id="Grupo_454" data-name="Grupo 454">
        <path id="Trazado_650" data-name="Trazado 650" d="M177.23,144.449a2.243,2.243,0,0,0-3.172,0l-29.609,29.61a2.243,2.243,0,1,0,3.172,3.172l29.609-29.609A2.243,2.243,0,0,0,177.23,144.449Z" transform="translate(-143.791 -143.791)" fill="#fff"/>
      </g>
    </g>
    <g id="Grupo_457" data-name="Grupo 457" transform="translate(30.481 18.703)">
      <g id="Grupo_456" data-name="Grupo 456">
        <path id="Trazado_651" data-name="Trazado 651" d="M151.027,123.116a8.225,8.225,0,1,0,8.225,8.225A8.235,8.235,0,0,0,151.027,123.116Zm0,11.964a3.739,3.739,0,1,1,3.739-3.739A3.743,3.743,0,0,1,151.027,135.08Z" transform="translate(-142.802 -123.116)" fill="#fff"/>
      </g>
    </g>
    <g id="Grupo_459" data-name="Grupo 459" transform="translate(48.427 42.631)">
      <g id="Grupo_458" data-name="Grupo 458">
        <path id="Trazado_652" data-name="Trazado 652" d="M269.147,280.61a8.225,8.225,0,1,0,8.225,8.225A8.235,8.235,0,0,0,269.147,280.61Zm0,11.964a3.739,3.739,0,1,1,3.739-3.739A3.743,3.743,0,0,1,269.147,292.574Z" transform="translate(-260.922 -280.61)" fill="#fff"/>
      </g>
    </g>
  </g>
</svg>
