<?xml version="1.0" encoding="utf-8"?>
<!-- Generator: Adobe Illustrator 24.0.3, SVG Export Plug-In . SVG Version: 6.00 Build 0)  -->
<svg version="1.1" id="Capa_1" xmlns="http://www.w3.org/2000/svg" xmlns:xlink="http://www.w3.org/1999/xlink" x="0px" y="0px"
	 width="20.1px" height="19.2px" viewBox="0 0 20.1 19.2" style="enable-background:new 0 0 20.1 19.2;" xml:space="preserve">
<style type="text/css">
	.st0{fill:#FFFFFF;}
	.st1{fill:#E30A18;}
</style>
<g id="Grupo_4" transform="translate(-500.833 -283.588)">
	<path id="Trazado_20" class="st0" d="M510.9,294.3c3,0,5.4-2.4,5.4-5.4c0-3-2.4-5.4-5.4-5.4c-3,0-5.4,2.4-5.4,5.4
		C505.5,291.9,507.9,294.3,510.9,294.3z M510.9,285c2.2,0,4,1.8,4,4c0,2.2-1.8,4-4,4c-2.2,0-4-1.8-4-4l0,0
		C506.9,286.8,508.7,285,510.9,285z"/>
	<path id="Trazado_21" class="st0" d="M501.5,302.8h18.7c0.4,0,0.7-0.3,0.7-0.7c0,0,0,0,0,0c0-3.7-3-6.8-6.8-6.8h-6.6
		c-3.7,0-6.8,3-6.8,6.8C500.8,302.4,501.1,302.8,501.5,302.8C501.5,302.8,501.5,302.8,501.5,302.8L501.5,302.8z M507.6,296.7h6.6
		c2.7,0,4.9,2,5.3,4.6h-17.2C502.7,298.7,504.9,296.7,507.6,296.7L507.6,296.7z"/>
</g>
<g id="Grupo_4_1_" transform="translate(-500.833 -283.588)">
	<path id="Trazado_20_1_" class="st1" d="M487.4,294.3c3,0,5.4-2.4,5.4-5.4c0-3-2.4-5.4-5.4-5.4c-3,0-5.4,2.4-5.4,5.4
		C482,291.9,484.4,294.3,487.4,294.3z M487.4,285c2.2,0,4,1.8,4,4c0,2.2-1.8,4-4,4c-2.2,0-4-1.8-4-4l0,0
		C483.5,286.8,485.2,285,487.4,285z"/>
	<path id="Trazado_21_1_" class="st1" d="M478.1,302.8h18.7c0.4,0,0.7-0.3,0.7-0.7c0,0,0,0,0,0c0-3.7-3-6.8-6.8-6.8h-6.6
		c-3.7,0-6.8,3-6.8,6.8C477.4,302.4,477.7,302.8,478.1,302.8C478.1,302.8,478.1,302.8,478.1,302.8L478.1,302.8z M484.1,296.7h6.6
		c2.7,0,4.9,2,5.3,4.6h-17.2C479.2,298.7,481.5,296.7,484.1,296.7L484.1,296.7z"/>
</g>
</svg>
