<svg id="_003-credit-card" data-name="003-credit-card" xmlns="http://www.w3.org/2000/svg" width="46.284" height="36.684" viewBox="0 0 46.284 36.684">
  <path id="Trazado_914" data-name="Trazado 914" d="M45.462,57.053A3.454,3.454,0,0,0,43.1,55.833L10.5,53.112A3.476,3.476,0,0,0,6.75,56.276l-.656,6.152H3.476A3.48,3.48,0,0,0,0,65.9v20.4a3.48,3.48,0,0,0,3.476,3.476H36.184a3.48,3.48,0,0,0,3.476-3.476V83l1.161.1q.147.012.292.012a3.481,3.481,0,0,0,3.462-3.187l1.7-20.332a3.454,3.454,0,0,0-.81-2.534ZM3.476,64.236H36.184A1.67,1.67,0,0,1,37.852,65.9v1.859H1.808V65.9a1.67,1.67,0,0,1,1.668-1.668ZM1.808,69.571H37.852v3.751H1.808Zm34.376,18.4H3.476a1.67,1.67,0,0,1-1.668-1.668V75.13H37.852V86.307A1.67,1.67,0,0,1,36.184,87.976ZM44.47,59.437l-1.7,20.332a1.67,1.67,0,0,1-1.8,1.524l-1.311-.109V65.9a3.48,3.48,0,0,0-3.476-3.476H7.913l.636-5.97c0-.007,0-.014,0-.021a1.67,1.67,0,0,1,1.8-1.524l32.594,2.722a1.668,1.668,0,0,1,1.524,1.8Z" transform="translate(0 -53.1)" fill="#e30a18"/>
  <path id="Trazado_915" data-name="Trazado 915" d="M280.235,326.532h-8.7a.9.9,0,0,0-.9.9v5.676a.9.9,0,0,0,.9.9h8.7a.9.9,0,0,0,.9-.9v-5.676A.9.9,0,0,0,280.235,326.532Zm-.9,5.676h-6.892V328.34h6.892Z" transform="translate(-246.166 -301.814)" fill="#e30a18"/>
</svg>
