<svg id="_005-returning" data-name="005-returning" xmlns="http://www.w3.org/2000/svg" width="41.029" height="41.029" viewBox="0 0 41.029 41.029">
  <path id="Trazado_919" data-name="Trazado 919" d="M28.207,29.933H2.267A2.27,2.27,0,0,1,0,27.667V6.855A.855.855,0,0,1,.855,6H33.336a.855.855,0,0,1,.855.855v6.838a.855.855,0,1,1-1.71,0V7.71H1.71V27.667a.557.557,0,0,0,.557.557h25.94a.855.855,0,1,1,0,1.71Z" transform="translate(0 4.257)" fill="#e30a18"/>
  <path id="Trazado_920" data-name="Trazado 920" d="M33.336,11.967a.852.852,0,0,1-.749-.443L27.424,2.152a.851.851,0,0,0-.749-.443H7.515a.851.851,0,0,0-.749.443L1.6,11.524a.855.855,0,0,1-1.5-.824L5.269,1.328A2.56,2.56,0,0,1,7.515,0H26.677a2.562,2.562,0,0,1,2.246,1.327L34.085,10.7a.856.856,0,0,1-.749,1.268Z" transform="translate(0 0)" fill="#e30a18"/>
  <path id="Trazado_921" data-name="Trazado 921" d="M10.355,11.967a.855.855,0,0,1-.855-.855V.855a.855.855,0,1,1,1.71,0V11.112A.855.855,0,0,1,10.355,11.967Z" transform="translate(6.741)" fill="#e30a18"/>
  <path id="Trazado_922" data-name="Trazado 922" d="M29.531,30.386a.855.855,0,0,1-.855-.855V26.112a9.414,9.414,0,0,0-9.4-9.4H15.855a.855.855,0,0,1,0-1.71h3.419A11.125,11.125,0,0,1,30.386,26.112v3.419A.855.855,0,0,1,29.531,30.386Z" transform="translate(10.643 10.643)" fill="#e30a18"/>
  <path id="Trazado_923" data-name="Trazado 923" d="M21.838,23.966a.85.85,0,0,1-.556-.207L15.3,18.631a.851.851,0,0,1,0-1.3l5.983-5.129a.854.854,0,1,1,1.111,1.3l-5.224,4.479L22.4,22.464a.853.853,0,0,1-.557,1.5Z" transform="translate(10.643 8.515)" fill="#e30a18"/>
</svg>
