<svg xmlns="http://www.w3.org/2000/svg" width="20.135" height="19.176" viewBox="0 0 20.135 19.176">
  <g id="Grupo_4" data-name="Grupo 4" transform="translate(-500.833 -283.588)">
    <path id="Trazado_20" data-name="Trazado 20" d="M528.6,294.349a5.38,5.38,0,1,0-5.389-5.389,5.391,5.391,0,0,0,5.389,5.389Zm0-9.356a3.967,3.967,0,1,1-3.967,3.967,3.979,3.979,0,0,1,3.967-3.967Z" transform="translate(-17.734 0)" fill="#e30a18"/>
    <path id="Trazado_21" data-name="Trazado 21" d="M501.543,347.449h18.713a.706.706,0,0,0,.712-.71,6.768,6.768,0,0,0-6.761-6.761h-6.613a6.765,6.765,0,0,0-6.761,6.759.706.706,0,0,0,.71.712Zm6.051-6.051h6.613a5.336,5.336,0,0,1,5.289,4.629H502.3a5.35,5.35,0,0,1,5.289-4.629Z" transform="translate(0 -44.685)" fill="#e30a18"/>
  </g>
</svg>
