<svg xmlns="http://www.w3.org/2000/svg" width="14" height="18" viewBox="0 0 14 18">
  <g id="Grupo_8" data-name="Grupo 8" transform="translate(-34.913 -33.709)">
    <path id="Trazado_40" data-name="Trazado 40" d="M49.479,63.269a.223.223,0,0,0-.13.041.22.22,0,0,0-.086.145.216.216,0,0,0,.041.16,3.034,3.034,0,0,1,.593,1.812V66H48.619v-.71a.361.361,0,0,0-.36-.36H45.975a.36.36,0,0,0-.36.36V66H41.352a.219.219,0,0,0-.218.218.221.221,0,0,0,.218.219H49.9A.432.432,0,0,0,50.329,66v-.578a3.475,3.475,0,0,0-.681-2.072A.2.2,0,0,0,49.479,63.269ZM48.187,66H46.051V65.37h2.136Z" transform="translate(-2.624 -14.742)" fill="#e30a18"/>
    <path id="Trazado_41" data-name="Trazado 41" d="M47.892,38.938l-.043-.008v-.324a5.012,5.012,0,0,0-5.108-4.9H41.216a5.356,5.356,0,0,0-2.806.781.213.213,0,0,0-.1.135.209.209,0,0,0,.031.162.225.225,0,0,0,.187.1.234.234,0,0,0,.123-.035,4.941,4.941,0,0,1,2.569-.716h1.525a4.575,4.575,0,0,1,4.663,4.47v.311h-.486v-.049a4.4,4.4,0,0,0-.078-.75,3.488,3.488,0,0,0-1.223-2.181,5.838,5.838,0,0,0-3.7-.963,5.861,5.861,0,0,0-3.7.963A3.471,3.471,0,0,0,37,38.119a4.349,4.349,0,0,0-.078.75v.049h-.491v-.191a4.46,4.46,0,0,1,1.345-3.189.212.212,0,0,0,0-.306.235.235,0,0,0-.158-.06.233.233,0,0,0-.161.064,4.888,4.888,0,0,0-1.474,3.491v.207l-.042.008a1.221,1.221,0,0,0-1.026,1.181v2.261a1.234,1.234,0,0,0,1.257,1.206h.147v.422a.581.581,0,0,0,.592.568l1.66.02a4.23,4.23,0,0,0,1.988,1.384l.035.012-.018.722-.673.524h-.115a3.548,3.548,0,0,0-3.616,3.467v.572a.443.443,0,0,0,.446.428H37.2a.216.216,0,1,0,0-.433h-.576v-.567a3.1,3.1,0,0,1,3.165-3.034l.133.016.99,1.055a.3.3,0,0,0,.22.093.294.294,0,0,0,.253-.136l.537-.838.538.839a.293.293,0,0,0,.251.136.3.3,0,0,0,.22-.093l1.029-1.071h.094a3.271,3.271,0,0,1,1.758.51.227.227,0,0,0,.124.036.222.222,0,0,0,.186-.1.207.207,0,0,0-.064-.3,3.705,3.705,0,0,0-2.009-.585l-.149-.011-.658-.552V46l.035-.012a4.144,4.144,0,0,0,2.608-2.5l.023-.064.057.04a.755.755,0,0,0,.431.137h1.262a1.234,1.234,0,0,0,1.258-1.206V40.129A1.215,1.215,0,0,0,47.892,38.938ZM36.17,43.163a.8.8,0,0,1-.806-.779V40.124a.792.792,0,0,1,.806-.774h1.263a.281.281,0,0,1,.283.271v3.27a.281.281,0,0,1-.283.271Zm.791.98v.005H36.91a.144.144,0,0,1-.147-.141v-.421h.671a.757.757,0,0,0,.43-.136l.058-.04.023.064a3.526,3.526,0,0,0,.275.594l.043.075ZM41.1,48.3l-.785-.832.511-.409.779.457Zm-.065-1.651v-.543l.063.012a4.559,4.559,0,0,0,1.64,0l.063-.012v.543l.023.043h-.052l-.856.5Zm2.48.813-.785.838-.5-.789.779-.458Zm2.141-5.3A3.471,3.471,0,0,1,44.577,44.7a3.869,3.869,0,0,1-5.369-.044l-.085-.085h1.413l.052.02v.05a.51.51,0,0,0,.519.5h1.619a.509.509,0,0,0,.519-.5v-.563a.509.509,0,0,0-.519-.5H41.106a.513.513,0,0,0-.519.517v.05l-1.82-.023a3.486,3.486,0,0,1-.606-1.956V41.8h.051a.485.485,0,0,0,.433-.223,7.858,7.858,0,0,0,.3-1.942c.014-.148.025-.28.035-.382a1.146,1.146,0,0,1,.454-.872.658.658,0,0,1,.341-.09,1.076,1.076,0,0,1,.387.08,5.32,5.32,0,0,0,3.489,0,1.177,1.177,0,0,1,.392-.078.644.644,0,0,1,.335.088,1.146,1.146,0,0,1,.455.871l.03.344a8.055,8.055,0,0,0,.309,1.982.475.475,0,0,0,.431.217h.052Zm-4.621,1.915.021-.07h1.671l.073.02v.613l-.021.07H41.106l-.074-.02,0-.051C41.041,44.313,41.039,44.194,41.038,44.078Zm4.631-4.461v1.7l-.01.05h-.088l-.014-.032a14,14,0,0,1-.247-1.873c-.012-.123-.019-.211-.024-.246a1.571,1.571,0,0,0-.662-1.2,1.122,1.122,0,0,0-.577-.153,1.6,1.6,0,0,0-.555.108,4.838,4.838,0,0,1-3.166,0,1.583,1.583,0,0,0-.553-.108,1.1,1.1,0,0,0-.574.153,1.573,1.573,0,0,0-.662,1.2c-.005.044-.013.134-.024.253a12.524,12.524,0,0,1-.247,1.866l-.024.031h-.087V39.617a.719.719,0,0,0-.744-.7h-.054l0-.051a3.879,3.879,0,0,1,.074-.667c.277-1.383,1.026-2.8,4.484-2.8s4.208,1.415,4.484,2.8a3.462,3.462,0,0,1,.069.668l-.021.05H46.4A.715.715,0,0,0,45.669,39.617Zm2.8,2.767a.791.791,0,0,1-.806.774H46.4a.277.277,0,0,1-.282-.271v-3.27a.277.277,0,0,1,.282-.271h1.263a.791.791,0,0,1,.806.774Z" transform="translate(0 0)" fill="#e30a18"/>
  </g>
</svg>
