<svg id="_001-shop" data-name="001-shop" xmlns="http://www.w3.org/2000/svg" width="40.921" height="34.952" viewBox="0 0 40.921 34.952">
  <g id="Grupo_488" data-name="Grupo 488" transform="translate(0 0)">
    <g id="Grupo_487" data-name="Grupo 487">
      <path id="Trazado_908" data-name="Trazado 908" d="M40.861,47.9l-.027-.154c0-.024-.008-.047-.012-.071l-2.87-6.931V37.34H2.922v3.41L.1,47.68c-.006.027-.01.055-.015.082L.059,47.9A4.935,4.935,0,0,0,0,48.666a4.869,4.869,0,0,0,2.558,4.288V72.292H38.364V52.954a4.871,4.871,0,0,0,2.558-4.288A4.935,4.935,0,0,0,40.861,47.9Zm-1.927-.335H32.67l-.753-5.062h4.955ZM4.628,39.045H36.247V40.75H4.628ZM31.2,49.275l.092.619-.5.671a3.166,3.166,0,0,1-5.068,0l-.515-.686-.03-.6Zm-6.108-1.7-.248-5.062h5.349l.754,5.062Zm-1.623,1.7h0l.03.618-.506.672a3.166,3.166,0,0,1-5.068,0l-.517-.69.03-.6Zm-5.944-1.7.256-5.062h5.357l.247,5.062Zm-7.542,0,.744-5.062h5.347l-.257,5.062Zm5.747,1.7L15.7,49.9l-.5.665a3.166,3.166,0,0,1-5.068,0L9.64,49.91l.094-.635ZM4.047,42.508H9L8.26,47.57H1.986ZM1.763,49.275H8.01l-.134.662-.471.628a3.167,3.167,0,0,1-5.642-1.29ZM33.248,70.589H26.427V64.62h.853a.852.852,0,1,0,0-1.7h-.853V56.947h6.821Zm3.409,0h-1.7V55.244H24.723V70.589H4.262V53.5a4.872,4.872,0,0,0,4.506-1.911,4.872,4.872,0,0,0,7.8,0,4.871,4.871,0,0,0,7.794,0,4.872,4.872,0,0,0,7.8,0A4.872,4.872,0,0,0,36.658,53.5V70.589Zm-.61-18.757a3.142,3.142,0,0,1-2.533-1.268l-.5-.658-.1-.632h6.232A3.17,3.17,0,0,1,36.048,51.832Z" transform="translate(0 -37.34)" fill="#e30a18"/>
    </g>
  </g>
  <g id="Grupo_490" data-name="Grupo 490" transform="translate(5.967 17.904)">
    <g id="Grupo_489" data-name="Grupo 489">
      <path id="Trazado_909" data-name="Trazado 909" d="M74.656,261.348v11.934H91.707V261.348ZM90,271.578H76.362v-8.527H90Z" transform="translate(-74.656 -261.348)" fill="#e30a18"/>
    </g>
  </g>
  <g id="Grupo_492" data-name="Grupo 492" transform="translate(17.044 23.87)">
    <g id="Grupo_491" data-name="Grupo 491">
      <path id="Trazado_910" data-name="Trazado 910" d="M215.808,336a.846.846,0,0,0-.6.25l-1.7,1.706a.852.852,0,1,0,1.205,1.2l1.7-1.7a.853.853,0,0,0-.6-1.456Z" transform="translate(-213.25 -336.004)" fill="#e30a18"/>
    </g>
  </g>
  <g id="Grupo_494" data-name="Grupo 494" transform="translate(13.633 20.461)">
    <g id="Grupo_493" data-name="Grupo 493">
      <path id="Trazado_911" data-name="Trazado 911" d="M176.546,293.348a.846.846,0,0,0-.6.25l-5.115,5.114a.852.852,0,1,0,1.205,1.205l5.115-5.114a.852.852,0,0,0-.6-1.455Z" transform="translate(-170.578 -293.348)" fill="#e30a18"/>
    </g>
  </g>
</svg>
