<?xml version="1.0" encoding="utf-8"?>
<!-- Generator: Adobe Illustrator 24.0.3, SVG Export Plug-In . SVG Version: 6.00 Build 0)  -->
<svg version="1.1" id="Capa_1" xmlns="http://www.w3.org/2000/svg" xmlns:xlink="http://www.w3.org/1999/xlink" x="0px" y="0px"
	 width="35px" height="35px" viewBox="0 0 35 35" style="enable-background:new 0 0 35 35;" xml:space="preserve">
<style type="text/css">
	.st0{fill:#CCCCCC;}
	.st1{fill:#777777;}
</style>
<path id="Trazado_1" class="st0" d="M91.551-57.148c0.886-2.582,1.631-5.21,2.233-7.873c-1.797,1.355-3.907,2.237-6.134,2.564
	c0.071-0.978,0.121-1.961,0.121-2.956c0-0.111-0.007-0.222-0.008-0.333c1.507-1.498,3.941-4.327,3.959-6.966
	c-0.05-2.729-0.248-5.453-0.593-8.161c-1.226,1.889-2.908,3.439-4.89,4.508c-0.284-0.997-0.596-1.981-0.959-2.945
	c0.901-1.877,2.342-5.513,1.427-8.081c-0.981-2.547-2.099-5.04-3.349-7.466c-0.515,2.25-1.607,4.327-3.168,6.027
	c-0.655-0.907-1.346-1.785-2.072-2.634c0.196-2.101,0.267-5.902-1.437-7.962c-1.793-2.058-3.696-4.018-5.701-5.871
	c0.279,2.258-0.022,4.549-0.875,6.658c-0.885-0.6-1.798-1.156-2.733-1.686c-0.529-2.034-1.763-5.671-4.085-7.032
	c-2.389-1.319-4.848-2.508-7.365-3.561c1.042,2.037,1.542,4.308,1.452,6.594c-1.149-0.288-2.318-0.529-3.504-0.714
	c-1.29-1.745-3.446-4.145-5.79-4.575c-2.696-0.424-5.414-0.702-8.14-0.833c1.524,1.433,2.701,3.196,3.441,5.153
	c-0.837,0.089-1.663,0.211-2.482,0.349c-1.389-1.077-5.273-3.815-8.317-3.307c-2.683,0.518-5.335,1.183-7.944,1.992
	c2.308,0.979,4.288,2.597,5.706,4.664c-0.87,0.411-1.716,0.874-2.55,1.351c-1.663-0.536-6.269-1.79-8.962-0.274
	c-2.342,1.404-4.605,2.936-6.779,4.587c2.511,0.131,4.932,0.979,6.975,2.445c-0.67,0.684-1.316,1.391-1.937,2.122
	c-1.583,0.047-6.602,0.386-8.683,2.819c-1.718,2.12-3.318,4.333-4.794,6.628c2.445-0.753,5.058-0.771,7.513-0.049
	c-0.436,0.959-0.842,1.931-1.203,2.927c-1.849,0.822-5.493,2.72-6.475,5.361c-0.886,2.582-1.631,5.21-2.233,7.872
	c1.875-1.426,4.098-2.325,6.438-2.602c-0.073,0.988-0.123,1.982-0.123,2.989c0,0.014,0,0.026,0,0.04
	c-1.455,1.396-4.246,4.435-4.26,7.26c0.05,2.729,0.248,5.453,0.593,8.161c1.276-1.979,3.056-3.581,5.158-4.641
	c0.293,1.042,0.618,2.071,0.99,3.078c-0.901,1.877-2.342,5.513-1.426,8.081c0.981,2.547,2.099,5.04,3.349,7.466
	c0.515-2.25,1.607-4.327,3.168-6.027c0.573,0.793,1.171,1.564,1.796,2.315c-0.215,2.012-0.388,6.112,1.405,8.28
	c1.793,2.058,3.696,4.018,5.701,5.871c-0.292-2.319,0.036-4.674,0.949-6.825c0.845,0.582,1.712,1.13,2.602,1.644
	c0.496,1.985,1.735,5.831,4.138,7.24c2.389,1.319,4.848,2.508,7.365,3.561c-1.054-2.058-1.553-4.355-1.448-6.665
	c0.892,0.23,1.8,0.419,2.715,0.589c0.856,1.37,3.635,5.416,6.757,5.988c2.696,0.424,5.414,0.702,8.14,0.833
	c-1.851-1.695-3.166-3.894-3.785-6.327c0.996-0.094,1.979-0.229,2.953-0.395c1.389,1.078,5.273,3.815,8.317,3.307
	c2.683-0.518,5.335-1.183,7.944-1.992c-2.308-0.979-4.288-2.597-5.706-4.664c0.87-0.411,1.716-0.874,2.549-1.351
	c1.663,0.536,6.269,1.79,8.962,0.274c2.342-1.404,4.605-2.935,6.779-4.586c-2.506-0.13-4.922-0.975-6.962-2.435
	c0.675-0.688,1.324-1.399,1.946-2.134c1.853-0.082,6.409-0.519,8.364-2.807c1.72-2.12,3.323-4.333,4.801-6.628
	c-2.354,0.718-4.862,0.765-7.242,0.137c0.474-1.037,0.91-2.093,1.296-3.174C87.371-52.846,90.629-54.672,91.551-57.148z
	 M47.502-60.738c-2.376,0-4.302-1.926-4.302-4.302c0-2.376,1.926-4.302,4.302-4.302c2.376,0,4.302,1.926,4.302,4.302l0,0
	C51.804-62.664,49.878-60.738,47.502-60.738z"/>
<path id="Trazado_1_1_" class="st1" d="M34.156,20.485c0.335-0.976,0.617-1.97,0.844-2.977c-0.679,0.512-1.477,0.846-2.319,0.969
	c0.027-0.37,0.046-0.741,0.046-1.118c0-0.042-0.003-0.084-0.003-0.126c0.57-0.566,1.49-1.636,1.497-2.634
	c-0.019-1.032-0.094-2.062-0.224-3.086c-0.464,0.714-1.1,1.3-1.849,1.704c-0.107-0.377-0.225-0.749-0.363-1.114
	c0.341-0.71,0.886-2.084,0.54-3.055c-0.371-0.963-0.794-1.906-1.266-2.823c-0.195,0.851-0.608,1.636-1.198,2.279
	c-0.248-0.343-0.509-0.675-0.783-0.996c0.074-0.794,0.101-2.232-0.543-3.01c-0.678-0.778-1.397-1.519-2.156-2.22
	c0.105,0.854-0.008,1.72-0.331,2.517c-0.335-0.227-0.68-0.437-1.033-0.637c-0.2-0.769-0.667-2.144-1.545-2.659
	c-0.903-0.499-1.833-0.948-2.785-1.346c0.394,0.77,0.583,1.629,0.549,2.493c-0.434-0.109-0.876-0.2-1.325-0.27
	c-0.488-0.66-1.303-1.567-2.189-1.73c-1.019-0.16-2.047-0.265-3.078-0.315c0.576,0.542,1.021,1.208,1.301,1.948
	c-0.316,0.034-0.629,0.08-0.938,0.132c-0.525-0.407-1.994-1.442-3.145-1.25c-1.014,0.196-2.017,0.447-3.004,0.753
	c0.873,0.37,1.621,0.982,2.157,1.763c-0.329,0.155-0.649,0.33-0.964,0.511C9.42,3.988,7.679,3.514,6.661,4.087
	c-0.886,0.531-1.741,1.11-2.563,1.734c0.949,0.05,1.865,0.37,2.637,0.924C6.481,7.005,6.237,7.272,6.002,7.548
	C5.404,7.566,3.506,7.694,2.719,8.614c-0.65,0.802-1.255,1.638-1.813,2.506c0.924-0.285,1.912-0.292,2.841-0.019
	c-0.165,0.363-0.318,0.73-0.455,1.107c-0.699,0.311-2.077,1.028-2.448,2.027C0.509,15.212,0.228,16.205,0,17.212
	c0.709-0.539,1.549-0.879,2.434-0.984c-0.028,0.374-0.047,0.749-0.047,1.13c0,0.005,0,0.01,0,0.015
	c-0.55,0.528-1.605,1.677-1.611,2.745c0.019,1.032,0.094,2.062,0.224,3.086c0.482-0.748,1.155-1.354,1.95-1.755
	c0.111,0.394,0.234,0.783,0.374,1.164c-0.341,0.71-0.886,2.084-0.539,3.055c0.371,0.963,0.794,1.906,1.266,2.823
	c0.195-0.851,0.608-1.636,1.198-2.279c0.217,0.3,0.443,0.591,0.679,0.875c-0.081,0.761-0.147,2.311,0.531,3.131
	c0.678,0.778,1.397,1.519,2.156,2.22c-0.11-0.877,0.014-1.767,0.359-2.581c0.319,0.22,0.647,0.427,0.984,0.622
	c0.188,0.751,0.656,2.205,1.565,2.737c0.903,0.499,1.833,0.948,2.785,1.346c-0.399-0.778-0.587-1.647-0.547-2.52
	c0.337,0.087,0.681,0.158,1.027,0.223c0.324,0.518,1.374,2.048,2.555,2.264c1.019,0.16,2.047,0.265,3.078,0.315
	c-0.7-0.641-1.197-1.472-1.431-2.392c0.377-0.036,0.748-0.087,1.117-0.149c0.525,0.408,1.994,1.442,3.145,1.25
	c1.014-0.196,2.017-0.447,3.004-0.753c-0.873-0.37-1.621-0.982-2.157-1.763c0.329-0.155,0.649-0.33,0.964-0.511
	c0.629,0.203,2.37,0.677,3.389,0.104c0.886-0.531,1.741-1.11,2.563-1.734c-0.948-0.049-1.861-0.369-2.632-0.921
	c0.255-0.26,0.501-0.529,0.736-0.807c0.701-0.031,2.423-0.196,3.162-1.061c0.65-0.802,1.256-1.638,1.815-2.506
	c-0.89,0.271-1.838,0.289-2.738,0.052c0.179-0.392,0.344-0.791,0.49-1.2C32.575,22.112,33.807,21.422,34.156,20.485z M17.501,19.128
	c-0.898,0-1.627-0.728-1.627-1.627s0.728-1.627,1.627-1.627c0.898,0,1.627,0.728,1.627,1.627l0,0
	C19.127,18.4,18.399,19.128,17.501,19.128z"/>
</svg>
