<?xml version="1.0" encoding="utf-8"?>
<!-- Generator: Adobe Illustrator 24.0.3, SVG Export Plug-In . SVG Version: 6.00 Build 0)  -->
<svg version="1.1" id="Capa_1" xmlns="http://www.w3.org/2000/svg" xmlns:xlink="http://www.w3.org/1999/xlink" x="0px" y="0px"
	 width="95px" height="95px" viewBox="0 0 95 95" style="enable-background:new 0 0 95 95;" xml:space="preserve">
<style type="text/css">
	.st0{fill:#CCCCCC;}
</style>
<path id="Trazado_1" class="st0" d="M91.551,55.398c0.886-2.582,1.631-5.21,2.233-7.873c-1.797,1.355-3.907,2.237-6.134,2.564
	c0.071-0.978,0.121-1.961,0.121-2.956c0-0.111-0.007-0.222-0.008-0.333c1.507-1.498,3.941-4.327,3.959-6.966
	c-0.05-2.729-0.248-5.453-0.593-8.161c-1.226,1.889-2.908,3.439-4.89,4.508c-0.284-0.997-0.596-1.981-0.959-2.945
	c0.901-1.877,2.342-5.513,1.427-8.081c-0.981-2.547-2.099-5.04-3.349-7.466c-0.515,2.25-1.607,4.327-3.168,6.027
	c-0.655-0.907-1.346-1.785-2.072-2.634c0.196-2.101,0.267-5.902-1.437-7.962c-1.793-2.058-3.696-4.018-5.701-5.871
	c0.279,2.258-0.022,4.549-0.875,6.658c-0.885-0.6-1.798-1.156-2.733-1.686c-0.529-2.034-1.763-5.671-4.085-7.032
	c-2.389-1.319-4.848-2.508-7.365-3.561c1.042,2.037,1.542,4.308,1.452,6.594c-1.149-0.288-2.318-0.529-3.504-0.714
	c-1.29-1.745-3.446-4.145-5.79-4.575c-2.696-0.424-5.414-0.702-8.14-0.833c1.524,1.433,2.701,3.196,3.441,5.153
	c-0.837,0.089-1.663,0.211-2.482,0.349c-1.389-1.077-5.273-3.815-8.317-3.307c-2.683,0.518-5.335,1.183-7.944,1.992
	c2.308,0.979,4.288,2.597,5.706,4.664c-0.87,0.411-1.716,0.874-2.55,1.351c-1.663-0.536-6.269-1.79-8.962-0.274
	c-2.342,1.404-4.605,2.936-6.779,4.587c2.511,0.131,4.932,0.979,6.975,2.445c-0.67,0.684-1.316,1.391-1.937,2.122
	c-1.583,0.047-6.602,0.386-8.683,2.819c-1.718,2.12-3.318,4.333-4.794,6.628c2.445-0.753,5.058-0.771,7.513-0.049
	c-0.436,0.959-0.842,1.931-1.203,2.927c-1.849,0.822-5.493,2.72-6.475,5.361c-0.886,2.582-1.631,5.21-2.233,7.872
	c1.875-1.426,4.098-2.325,6.438-2.602c-0.073,0.988-0.123,1.982-0.123,2.989c0,0.014,0,0.026,0,0.04
	c-1.455,1.396-4.246,4.435-4.26,7.26c0.05,2.729,0.248,5.453,0.593,8.161c1.276-1.979,3.056-3.581,5.158-4.641
	c0.293,1.042,0.618,2.071,0.99,3.078c-0.901,1.877-2.342,5.513-1.426,8.081c0.981,2.547,2.099,5.04,3.349,7.466
	c0.515-2.25,1.607-4.327,3.168-6.027c0.573,0.793,1.171,1.564,1.796,2.315c-0.215,2.012-0.388,6.112,1.405,8.28
	c1.793,2.058,3.696,4.018,5.701,5.871c-0.292-2.319,0.036-4.674,0.949-6.825c0.845,0.582,1.712,1.13,2.602,1.644
	c0.496,1.985,1.735,5.831,4.138,7.24c2.389,1.319,4.848,2.508,7.365,3.561c-1.054-2.058-1.553-4.355-1.448-6.665
	c0.892,0.23,1.8,0.419,2.715,0.589c0.856,1.37,3.635,5.416,6.757,5.988c2.696,0.424,5.414,0.702,8.14,0.833
	c-1.851-1.695-3.166-3.894-3.785-6.327c0.996-0.094,1.979-0.229,2.953-0.395c1.389,1.078,5.273,3.815,8.317,3.307
	c2.683-0.518,5.335-1.183,7.944-1.992c-2.308-0.979-4.288-2.597-5.706-4.664c0.87-0.411,1.716-0.874,2.549-1.351
	c1.663,0.536,6.269,1.79,8.962,0.274c2.342-1.404,4.605-2.935,6.779-4.586c-2.506-0.13-4.922-0.975-6.962-2.435
	c0.675-0.688,1.324-1.399,1.946-2.134c1.853-0.082,6.409-0.519,8.364-2.807c1.72-2.12,3.323-4.333,4.801-6.628
	c-2.354,0.718-4.862,0.765-7.242,0.137c0.474-1.037,0.91-2.093,1.296-3.174C87.371,59.7,90.629,57.874,91.551,55.398z
	 M47.502,51.808c-2.376,0-4.302-1.926-4.302-4.302c0-2.376,1.926-4.302,4.302-4.302c2.376,0,4.302,1.926,4.302,4.302c0,0,0,0,0,0
	C51.804,49.882,49.878,51.808,47.502,51.808z"/>
</svg>
