<?xml version="1.0" encoding="utf-8"?>
<!-- Generator: Adobe Illustrator 24.0.3, SVG Export Plug-In . SVG Version: 6.00 Build 0)  -->
<svg version="1.1" id="Capa_1" xmlns="http://www.w3.org/2000/svg" xmlns:xlink="http://www.w3.org/1999/xlink" x="0px" y="0px"
	 width="200px" height="115px" viewBox="0 0 200 115" style="enable-background:new 0 0 200 115;" xml:space="preserve">
<style type="text/css">
	.st0{fill-rule:evenodd;clip-rule:evenodd;fill:#E30A18;}
	.st1{fill:#E30A18;}
	.st2{fill:#FFFFFF;}
	.st3{fill-rule:evenodd;clip-rule:evenodd;fill:#333333;}
	.st4{fill:#333333;}
</style>
<path id="Trazado_2" class="st0" d="M1.051,57.673v8.795h42.915v-8.795H1.051z M25.367,65.528l-0.504-3.761l-1.533,3.761h-2.037
	l-1.486-3.738l-0.504,3.738h-3.387l1.507-6.801h3.594l1.281,3.542l1.351-3.542h3.442l1.626,6.801H25.367z M33.265,65.528H29.79
	v-4.556h-1.889V58.73h7.251v2.242h-1.888V65.528z M42.628,63.872c-0.258,0.576-0.746,1.017-1.345,1.216
	c-0.689,0.283-1.422,0.443-2.166,0.473c-0.67,0.041-1.342-0.001-2.001-0.125c-0.678-0.12-1.35-0.275-2.012-0.464l0.997-1.96
	c0.716,0.453,1.542,0.703,2.389,0.725c0.236-0.009,0.468-0.062,0.685-0.155c0,0,0.329-0.337-0.116-0.473
	c-0.282-0.104-0.581-0.15-0.881-0.137c-0.699-0.065-1.378-0.264-2.001-0.588c-0.463-0.276-0.746-0.775-0.745-1.314
	c0,0-0.097-1.488,1.846-2.115c0.855-0.304,1.764-0.425,2.668-0.356c0.868,0.04,1.723,0.233,2.524,0.57l-0.959,1.781
	c-0.502-0.245-1.036-0.417-1.586-0.511c-0.067,0-1.044-0.068-1.063,0.274c0,0-0.147,0.29,0.358,0.329
	c0.627,0.053,1.248,0.16,1.857,0.318c0.557,0.138,1.062,0.437,1.451,0.86c0.334,0.49,0.372,1.124,0.1,1.651V63.872z"/>
<path id="Trazado_3" class="st1" d="M150.586,87.621c-7.654,0-9.222-3.687-9.222-9.224V53.164c0.001-0.351,0.286-0.636,0.637-0.636
	h8.858c0.351,0,0.636,0.285,0.636,0.636v22.825c-0.145,1.272,0.109,2.557,0.727,3.678c0.605,0.572,1.416,0.875,2.248,0.84
	c1.309,0.144,2.545-0.631,2.987-1.871c0.388-1.286,0.545-2.631,0.466-3.972V53.164c0-0.351,0.285-0.636,0.636-0.636h8.858
	c0.351,0,0.636,0.284,0.637,0.636v32.945c0,0.352-0.285,0.637-0.637,0.637h0h-8.449c-0.351-0.001-0.636-0.286-0.636-0.637v-2.353
	c-1.612,2.575-4.123,3.816-7.736,3.865H150.586z"/>
<path id="Trazado_4" class="st2" d="M167.416,53.164v32.945h-8.454v-4.908h-0.137c-1.363,3.913-3.952,5.724-8.244,5.783
	c-7.019,0-8.585-3.096-8.585-8.587V53.164h8.858v22.547c-0.188,1.519,0.123,3.057,0.886,4.383c0.726,0.709,1.712,1.089,2.726,1.051
	c4.157,0,4.089-4.031,4.089-6.601v-21.38h8.858 M167.412,51.891h-8.858c-0.703,0-1.272,0.57-1.272,1.273l0,0v21.505
	c0.076,1.26-0.067,2.525-0.421,3.737c-0.339,1.004-1.348,1.621-2.396,1.467c-0.649,0.036-1.286-0.191-1.767-0.629
	c-0.502-1.006-0.7-2.135-0.571-3.252V53.164c0-0.703-0.57-1.273-1.272-1.273l0,0h-8.858c-0.703,0-1.272,0.57-1.272,1.273l0,0v25.233
	c0,5.12,1.194,9.862,9.862,9.862c2.636,0.121,5.206-0.845,7.109-2.672v0.523c0,0.703,0.57,1.272,1.272,1.272l0,0h8.449
	c0.703,0,1.272-0.57,1.272-1.272l0,0V53.164c0-0.703-0.57-1.273-1.272-1.273l0,0H167.412z"/>
<path id="Trazado_5" class="st1" d="M83.527,91.968c-4.002,0.055-7.985-0.567-11.78-1.838C63.685,87.392,57.354,81.062,54.616,73
	c-0.137-0.411-0.284-0.83-0.429-1.259c-1.477-4.364-3.313-9.796-8.677-14.671c-3.294-3.031-7.566-4.781-12.04-4.931
	c-0.144,0-0.226,0-0.234,0H1.354c-0.351-0.001-0.635-0.285-0.636-0.636v-2.911c0-0.351,0.285-0.636,0.636-0.636h73.692
	c0.351,0,0.636,0.285,0.636,0.636v4.185c0,0.351-0.284,0.636-0.636,0.637h-6.55c-0.031,0-6.575,0.411-9.499,5.068
	c-2.096,3.344-1.886,8.075,0.623,14.063c4.921,11.744,13.588,14.208,19.991,14.208c6.429-0.176,12.676-2.173,18.015-5.76
	c10.511-6.898,14.74-19.16,18.154-36.709c0.058-0.299,0.32-0.515,0.625-0.515h12.328c0.057-0.02,0.117-0.03,0.178-0.03l1.215,0.019
	l-4.611-22.084c-0.039-0.196,0.016-0.398,0.148-0.548c6.601-7.261,14.71-12.992,23.758-16.79c4.386-1.582,9.025-2.343,13.686-2.244
	c5.086,0.03,10.152,0.654,15.093,1.859c0.197,0.053,0.357,0.198,0.429,0.389l5.641,14.921c0.091,0.238,0.031,0.508-0.153,0.685
	l-9.462,9.098c-0.118,0.114-0.277,0.178-0.441,0.178c-0.043,0-0.086-0.004-0.129-0.012c-0.206-0.042-0.378-0.184-0.459-0.378
	l-8.731-20.847c-1.794,0.205-8.229,0.959-11.299,1.575c-3.201,0.641-4.571,3.646-6.438,8.52c-1.105,2.876-4.057,9.922-7.182,17.386
	c-2.085,4.98-4.246,10.136-6.106,14.656c-0.851,2.063-1.614,4.045-2.353,5.961c-3.345,8.685-6.235,16.186-14.548,23.743
	C108.834,87.197,95.708,91.968,83.527,91.968z"/>
<path id="Trazado_6" class="st2" d="M163.1,2.725c5.032,0.024,10.043,0.64,14.93,1.837l5.641,14.921l-9.461,9.098l-8.916-21.288
	c0,0-8.187,0.91-11.828,1.644s-5.094,4.185-6.913,8.916c-1.819,4.731-8.551,20.561-13.286,32.023s-6.732,20.379-16.739,29.475
	c-8.081,7.343-21.245,11.991-33.001,11.991c-3.932,0.052-7.845-0.557-11.576-1.801c-7.876-2.678-14.061-8.863-16.739-16.74
	c-1.644-4.731-3.275-10.735-9.28-16.193c-3.405-3.145-7.831-4.956-12.465-5.1c-0.174,0-0.274,0-0.274,0H1.355v-2.911h73.692v4.185
	h-6.55c0,0-17.467,0.91-9.462,20.015c4.5,10.739,12.425,14.599,20.577,14.599c6.55-0.181,12.914-2.214,18.354-5.865
	c10.958-7.187,15.104-20.028,18.43-37.12h12.502v-0.03l2.001,0.03l-4.774-22.861c6.53-7.192,14.556-12.866,23.514-16.622
	c4.314-1.546,8.874-2.292,13.456-2.201 M163.096,1.452c-4.74-0.099-9.458,0.676-13.916,2.287
	c-9.142,3.836-17.334,9.625-24.003,16.96c-0.269,0.301-0.38,0.712-0.297,1.108l4.449,21.305h-0.411h-0.019
	c-0.092,0-0.184,0.01-0.274,0.03h-12.229c-0.609,0-1.133,0.432-1.249,1.03c-3.383,17.385-7.554,29.522-17.879,36.298
	c-5.233,3.518-11.358,5.48-17.661,5.656c-6.21,0-14.619-2.397-19.404-13.818c-2.423-5.783-2.65-10.315-0.675-13.473
	c2.646-4.23,8.55-4.743,9.005-4.776h6.509c0.703,0,1.272-0.57,1.272-1.272v-4.185c0-0.703-0.57-1.272-1.272-1.272H1.349
	c-0.703,0-1.272,0.57-1.272,1.272v2.911c0,0.703,0.57,1.272,1.272,1.272h31.915c0.011,0,0.081,0,0.199,0
	c4.317,0.148,8.437,1.84,11.613,4.768c5.242,4.765,6.975,9.887,8.503,14.405c0.145,0.43,0.289,0.851,0.43,1.263
	c2.8,8.246,9.275,14.721,17.52,17.523c3.865,1.295,7.921,1.929,11.997,1.874c12.334,0,25.625-4.837,33.857-12.328
	c8.424-7.658,11.339-15.225,14.712-23.985c0.737-1.918,1.498-3.891,2.348-5.946c1.864-4.52,4.02-9.666,6.105-14.647
	c3.127-7.469,6.08-14.519,7.188-17.405c1.79-4.657,3.037-7.534,5.976-8.124c2.819-0.563,8.521-1.251,10.773-1.507l8.546,20.409
	c0.272,0.648,1.017,0.953,1.666,0.681c0.144-0.06,0.276-0.147,0.389-0.255l9.462-9.096c0.368-0.353,0.489-0.893,0.308-1.37
	l-5.636-14.934c-0.145-0.383-0.464-0.673-0.859-0.779c-4.994-1.23-10.117-1.862-15.26-1.881H163.096z"/>
<path id="Trazado_7" class="st1" d="M178.636,87.621c-0.351-0.001-0.635-0.285-0.636-0.636V53.142
	c0.001-0.351,0.285-0.635,0.636-0.636h8.006c0.351,0.001,0.635,0.285,0.636,0.636v1.186c3.366-2.461,8.09-1.726,10.551,1.64
	c2.461,3.366,1.726,8.09-1.64,10.551c-2.654,1.939-6.257,1.939-8.91,0v20.472c-0.001,0.351-0.285,0.635-0.636,0.636L178.636,87.621z
	"/>
<path id="Trazado_8" class="st2" d="M186.643,53.147v2.603c2.581-2.814,6.955-3.002,9.769-0.421
	c2.814,2.581,3.002,6.955,0.421,9.769c-2.582,2.814-6.955,3.002-9.769,0.421c-0.146-0.134-0.287-0.275-0.421-0.421v21.881h-8.013
	V53.147h8.006 M186.636,51.875h-8.006c-0.703,0-1.272,0.57-1.272,1.273l0,0v33.832c0,0.703,0.57,1.272,1.272,1.272l0,0h8.006
	c0.703,0,1.272-0.57,1.272-1.272l0,0V67.653c3.997,2.113,8.951,0.586,11.064-3.411c2.113-3.997,0.586-8.951-3.411-11.064
	c-2.394-1.266-5.259-1.266-7.653,0v-0.03C187.909,52.444,187.339,51.875,186.636,51.875L186.636,51.875z"/>
<g id="Grupo_1" transform="translate(163.979 446.01)">
	<path id="Trazado_9" class="st3" d="M-158.716-420.747h5.816v-3.3h-5.816v-5.698h6.201v-3.301h-9.579v22.492h3.378V-420.747z"/>
	<path id="Trazado_10" class="st3" d="M-140.668-413.849h-6.13v-6.928h5.646v-3.3h-5.646v-5.668h6.13v-3.301h-9.507v22.492h9.507
		V-413.849z"/>
	<path id="Trazado_11" class="st3" d="M-134.614-420.237h0.604c0.969-0.067,1.942,0.034,2.876,0.3
		c1.157,0.421,1.134,2.309,1.157,3.689c-0.074,1.907,0.047,3.816,0.362,5.698h3.708v-0.421c-0.822-0.659-0.723-6.178-0.723-7.108
		c0-2.159-0.604-3.749-2.602-4.078v-0.06c2.268-0.39,2.775-2.97,2.775-5.428c0-4.138-2.22-5.398-5.141-5.398h-6.394v22.492h3.379
		L-134.614-420.237z M-134.614-429.744h2.509c1.279,0.03,2.123,0.451,2.123,2.97c0,2.249-0.868,3.15-1.979,3.239h-2.653V-429.744z"
		/>
	<path id="Trazado_12" class="st3" d="M-119.814-420.237h0.604c0.969-0.067,1.942,0.034,2.876,0.3
		c1.159,0.421,1.134,2.309,1.159,3.689c-0.074,1.907,0.047,3.816,0.362,5.698h3.716v-0.421c-0.822-0.659-0.723-6.178-0.723-7.108
		c0-2.159-0.604-3.749-2.602-4.078v-0.06c2.267-0.39,2.775-2.97,2.775-5.428c0-4.138-2.22-5.398-5.141-5.398h-6.394v22.492h3.378
		L-119.814-420.237z M-119.814-429.744h2.509c1.278,0.03,2.123,0.451,2.123,2.97c0,2.249-0.868,3.15-1.979,3.239h-2.655
		L-119.814-429.744z"/>
	<path id="Trazado_13" class="st3" d="M-98.93-413.849h-6.13v-6.928h5.646v-3.3h-5.646v-5.668h6.13v-3.301h-9.507v22.492h9.507
		V-413.849z"/>
	<path id="Trazado_14" class="st3" d="M-93.479-410.549h3.378v-19.194h3.933v-3.302h-11.269v3.3h3.957L-93.479-410.549z"/>
	<path id="Trazado_15" class="st3" d="M-74.661-413.849h-6.128v-6.928h5.646v-3.3h-5.646v-5.668h6.128v-3.301h-9.507v22.492h9.507
		V-413.849z"/>
	<path id="Trazado_16" class="st3" d="M-68.608-420.237h0.603c0.969-0.067,1.942,0.034,2.876,0.3
		c1.157,0.421,1.134,2.309,1.157,3.689c-0.074,1.907,0.047,3.816,0.362,5.698h3.716v-0.421c-0.822-0.659-0.725-6.178-0.725-7.108
		c0-2.159-0.603-3.749-2.602-4.078v-0.06c2.267-0.39,2.775-2.97,2.775-5.428c0-4.138-2.219-5.398-5.139-5.398h-6.394v22.492h3.379
		L-68.608-420.237z M-68.608-429.744h2.509c1.278,0.03,2.123,0.451,2.123,2.97c0,2.249-0.868,3.15-1.979,3.239h-2.653
		L-68.608-429.744z"/>
	<rect id="Rectángulo_5" x="-57.112" y="-433.043" class="st4" width="3.378" height="22.492"/>
	<path id="Trazado_17" class="st3" d="M-47.277-416.248h3.957l0.893,5.698h3.619l-4.101-22.495h-4.564l-4.32,22.492h3.619
		L-47.277-416.248z M-45.733-425.935c0.17-1.051,0.241-2.07,0.338-3.119c0.023-0.51,0.073-1.019,0.121-1.5h0.049
		c0.048,0.481,0.096,0.99,0.121,1.5c0.096,1.049,0.168,2.07,0.337,3.119l0.916,6.387h-2.896L-45.733-425.935z"/>
	<rect id="Rectángulo_6" x="-162.854" y="-407.241" class="st4" width="123.725" height="2.548"/>
</g>
</svg>
