<svg xmlns="http://www.w3.org/2000/svg" width="87" height="49" viewBox="0 0 87 49">
  <g id="Grupo_477" data-name="Grupo 477" transform="translate(-1596.291 96.709)">
    <path id="Trazado_1" data-name="Trazado 1" d="M343.183,494.45a33.529,33.529,0,0,0,.988-3.484,5.947,5.947,0,0,1-2.715,1.135c.032-.432.053-.868.053-1.308,0-.049,0-.1,0-.147.667-.664,1.744-1.915,1.752-3.083A33.508,33.508,0,0,0,343,483.95a5.944,5.944,0,0,1-2.164,1.995c-.125-.441-.264-.877-.422-1.3.4-.83,1.037-2.44.632-3.578a33.488,33.488,0,0,0-1.483-3.3,5.887,5.887,0,0,1-1.4,2.669q-.435-.6-.917-1.166c.087-.93.118-2.612-.636-3.524a33.518,33.518,0,0,0-2.523-2.6,5.918,5.918,0,0,1-.388,2.947c-.391-.265-.8-.512-1.209-.746-.234-.9-.78-2.51-1.808-3.112a33.511,33.511,0,0,0-3.26-1.578,5.9,5.9,0,0,1,.643,2.918c-.509-.127-1.026-.234-1.551-.316a4.906,4.906,0,0,0-2.563-2.025,33.539,33.539,0,0,0-3.6-.368,6.081,6.081,0,0,1,1.523,2.281c-.37.039-.736.093-1.1.155-.615-.477-2.334-1.688-3.681-1.464a33.082,33.082,0,0,0-3.513.882,5.819,5.819,0,0,1,2.526,2.064c-.385.185-.76.387-1.129.6-.736-.237-2.775-.792-3.967-.119a33.114,33.114,0,0,0-3,2.03,5.812,5.812,0,0,1,3.087,1.082q-.445.454-.857.939c-.7.02-2.922.171-3.843,1.248a33.124,33.124,0,0,0-2.125,2.934,5.769,5.769,0,0,1,3.325-.022c-.193.424-.373.855-.532,1.3-.818.362-2.431,1.2-2.866,2.372a33.5,33.5,0,0,0-.988,3.484,5.847,5.847,0,0,1,2.852-1.15c-.032.437-.055.877-.055,1.323,0,.006,0,.012,0,.018-.644.618-1.876,1.963-1.885,3.213a33.5,33.5,0,0,0,.263,3.612,5.852,5.852,0,0,1,2.283-2.054c.129.461.273.917.439,1.362-.4.83-1.037,2.44-.631,3.578a33.532,33.532,0,0,0,1.482,3.3,5.89,5.89,0,0,1,1.4-2.669q.38.526.795,1.024c-.1.891-.172,2.705.622,3.665a33.542,33.542,0,0,0,2.523,2.6,5.86,5.86,0,0,1,.42-3.021q.561.386,1.153.728c.219.878.768,2.581,1.831,3.2a33.542,33.542,0,0,0,3.26,1.578,5.883,5.883,0,0,1-.641-2.95c.395.1.8.186,1.2.261.379.6,1.609,2.4,2.99,2.651a33.507,33.507,0,0,0,3.6.369,5.7,5.7,0,0,1-1.675-2.8c.441-.042.876-.1,1.307-.175.615.477,2.334,1.688,3.681,1.463a33.109,33.109,0,0,0,3.513-.881,5.818,5.818,0,0,1-2.525-2.065c.385-.185.76-.387,1.128-.6.736.237,2.775.792,3.967.119a33.107,33.107,0,0,0,3-2.03,5.811,5.811,0,0,1-3.087-1.082q.448-.456.861-.945c.82-.037,2.836-.23,3.7-1.242a33.092,33.092,0,0,0,2.125-2.933,5.858,5.858,0,0,1-3.205.059c.21-.459.4-.926.573-1.4C341.332,496.355,342.775,495.546,343.183,494.45Zm-19.5-1.589a1.9,1.9,0,1,1,1.9-1.9A1.9,1.9,0,0,1,323.688,492.861Z" transform="translate(1330.078 -558.974)" fill="#ccc"/>
    <path id="Trazado_2" data-name="Trazado 2" d="M164.79,528.891v3.892h18.994v-3.892Zm10.762,3.477-.223-1.665-.678,1.665h-.9l-.658-1.654-.223,1.654h-1.5l.668-3.01h1.59l.567,1.568.6-1.568h1.519l.72,3.01Zm3.5,0h-1.538V530.35h-.836v-.992h3.209v.992h-.835Zm4.144-.733a1,1,0,0,1-.6.538,2.817,2.817,0,0,1-.958.209,3.587,3.587,0,0,1-.886-.055,8.819,8.819,0,0,1-.891-.206l.441-.867a2.075,2.075,0,0,0,1.057.32.859.859,0,0,0,.3-.068s.146-.149-.052-.21a1,1,0,0,0-.39-.06,2.4,2.4,0,0,1-.886-.26.675.675,0,0,1-.33-.581s-.043-.658.817-.936a2.87,2.87,0,0,1,1.181-.158,3.264,3.264,0,0,1,1.117.252l-.424.79a2.6,2.6,0,0,0-.7-.226c-.029,0-.462-.03-.47.124,0,0-.065.128.158.145a4.918,4.918,0,0,1,.822.141,1.3,1.3,0,0,1,.642.381A.715.715,0,0,1,183.192,531.634Z" transform="translate(1431.648 -601.183)" fill="#fff" fill-rule="evenodd"/>
    <path id="Trazado_3" data-name="Trazado 3" d="M396.7,536.068c-3.388,0-4.082-1.632-4.082-4.082V520.818a.282.282,0,0,1,.282-.282h3.92a.282.282,0,0,1,.282.282v10.1a2.728,2.728,0,0,0,.322,1.628,1.364,1.364,0,0,0,.995.372,1.258,1.258,0,0,0,1.322-.828,5.052,5.052,0,0,0,.206-1.757v-9.517a.282.282,0,0,1,.282-.282h3.92a.282.282,0,0,1,.282.282V535.4a.282.282,0,0,1-.282.282h-3.739a.282.282,0,0,1-.282-.282v-1.041a3.749,3.749,0,0,1-3.424,1.711Z" transform="translate(1265.194 -595.146)" fill="#fff"/>
    <path id="Trazado_5" data-name="Trazado 5" d="M200.5,478.416a15.412,15.412,0,0,1-5.16-.813,12.07,12.07,0,0,1-7.5-7.582c-.062-.182-.124-.367-.188-.557a14.032,14.032,0,0,0-3.8-6.494,8.136,8.136,0,0,0-5.271-2.184c-.063,0-.1,0-.1,0H164.529a.28.28,0,0,1-.278-.282v-1.288a.28.28,0,0,1,.278-.282h32.259a.28.28,0,0,1,.278.282v1.852a.28.28,0,0,1-.278.282h-2.868c-.014,0-2.879.18-4.158,2.243-.917,1.48-.826,3.574.273,6.224,2.154,5.2,5.948,6.289,8.752,6.288a14.76,14.76,0,0,0,7.884-2.549c4.6-3.053,6.453-8.48,7.947-16.246a.279.279,0,0,1,.274-.228h5.4a.245.245,0,0,1,.078-.013l.532.008-2.019-9.774a.285.285,0,0,1,.065-.245,29.477,29.477,0,0,1,10.4-7.431,16.454,16.454,0,0,1,5.992-.993,28.316,28.316,0,0,1,6.608.823.279.279,0,0,1,.188.172l2.469,6.6a.284.284,0,0,1-.067.3l-4.142,4.026a.277.277,0,0,1-.193.079.262.262,0,0,1-.057-.006.279.279,0,0,1-.2-.167l-3.822-9.227c-.785.091-3.6.425-4.947.7-1.4.284-2,1.614-2.821,3.771-.484,1.272-1.776,4.392-3.144,7.695-.913,2.2-1.857,4.484-2.673,6.484-.373.913-.707,1.79-1.03,2.638-1.465,3.844-2.73,7.164-6.368,10.508A22.691,22.691,0,0,1,200.5,478.416Z" transform="translate(1432.04 -535.345)" fill="#fff"/>
    <path id="Trazado_7" data-name="Trazado 7" d="M452.391,536.042a.282.282,0,0,1-.282-.282V520.782a.282.282,0,0,1,.282-.281h3.543a.282.282,0,0,1,.282.281v.525a3.342,3.342,0,1,1,0,5.393v9.061a.282.282,0,0,1-.282.282Z" transform="translate(1221.76 -595.121)" fill="#fff"/>
    <g id="Grupo_1" data-name="Grupo 1" transform="translate(1596.471 -91.894)">
      <path id="Trazado_9" data-name="Trazado 9" d="M167.64,461.745h2.574v-1.46H167.64v-2.522h2.745V456.3h-4.24v9.955h1.495Z" transform="translate(-165.808 -456.302)" fill="#fff" fill-rule="evenodd"/>
      <path id="Trazado_10" data-name="Trazado 10" d="M189.7,464.8H186.99v-3.066h2.5v-1.46h-2.5v-2.509H189.7V456.3h-4.208v9.955H189.7Z" transform="translate(-179.884 -456.302)" fill="#fff" fill-rule="evenodd"/>
      <path id="Trazado_11" data-name="Trazado 11" d="M206.771,461.97h.267a3.717,3.717,0,0,1,1.271.133c.512.186.5,1.022.512,1.632a12.389,12.389,0,0,0,.16,2.522h1.645v-.186c-.363-.292-.32-2.734-.32-3.145,0-.956-.267-1.659-1.154-1.805v-.027c1-.173,1.228-1.314,1.228-2.4,0-1.832-.983-2.389-2.275-2.389h-2.83v9.955h1.5Zm0-4.208h1.11c.566.013.94.2.94,1.314,0,1-.384,1.394-.876,1.434h-1.175Z" transform="translate(-194.273 -456.302)" fill="#fff" fill-rule="evenodd"/>
      <path id="Trazado_12" data-name="Trazado 12" d="M230.806,461.97h.267a3.717,3.717,0,0,1,1.271.133c.513.186.5,1.022.513,1.632a12.389,12.389,0,0,0,.16,2.522h1.645v-.186c-.363-.292-.32-2.734-.32-3.145,0-.956-.267-1.659-1.153-1.805v-.027c1-.173,1.228-1.314,1.228-2.4,0-1.832-.983-2.389-2.275-2.389h-2.83v9.955h1.5Zm0-4.208h1.111c.566.013.94.2.94,1.314,0,1-.385,1.394-.876,1.434h-1.175Z" transform="translate(-211.757 -456.302)" fill="#fff" fill-rule="evenodd"/>
      <path id="Trazado_13" data-name="Trazado 13" d="M257.474,464.8h-2.713v-3.066h2.5v-1.46h-2.5v-2.509h2.713V456.3h-4.208v9.955h4.208Z" transform="translate(-229.183 -456.302)" fill="#fff" fill-rule="evenodd"/>
      <path id="Trazado_14" data-name="Trazado 14" d="M272.88,466.257h1.5v-8.495h1.741V456.3h-4.987v1.46h1.751Z" transform="translate(-242.176 -456.302)" fill="#fff" fill-rule="evenodd"/>
      <path id="Trazado_15" data-name="Trazado 15" d="M296.881,464.8h-2.713v-3.066h2.5v-1.46h-2.5v-2.509h2.713V456.3h-4.208v9.955h4.208Z" transform="translate(-257.848 -456.302)" fill="#fff" fill-rule="evenodd"/>
      <path id="Trazado_16" data-name="Trazado 16" d="M313.949,461.97h.267a3.718,3.718,0,0,1,1.271.133c.512.186.5,1.022.512,1.632a12.391,12.391,0,0,0,.16,2.522H317.8v-.186c-.363-.292-.32-2.734-.32-3.145,0-.956-.267-1.659-1.153-1.805v-.027c1-.173,1.228-1.314,1.228-2.4,0-1.832-.982-2.389-2.275-2.389h-2.83v9.955h1.5Zm0-4.208h1.111c.566.013.94.2.94,1.314,0,1-.384,1.394-.876,1.434h-1.174Z" transform="translate(-272.237 -456.302)" fill="#fff" fill-rule="evenodd"/>
      <rect id="Rect치ngulo_5" data-name="Rect치ngulo 5" width="1.495" height="9.955" transform="translate(46.8 0)" fill="#fff"/>
      <path id="Trazado_17" data-name="Trazado 17" d="M347.246,463.735H349l.4,2.522h1.6l-1.816-9.955h-2.018l-1.912,9.955h1.6Zm.683-4.287c.075-.465.107-.916.15-1.381.01-.226.032-.451.053-.664h.022c.021.213.043.438.053.664.042.464.075.916.149,1.381l.406,2.827h-1.281Z" transform="translate(-296.093 -456.302)" fill="#fff" fill-rule="evenodd"/>
      <rect id="Rect치ngulo_6" data-name="Rect치ngulo 6" width="54.76" height="1.127" transform="translate(0 11.419)" fill="#fff"/>
    </g>
  </g>
</svg>
