<svg xmlns="http://www.w3.org/2000/svg" width="145.898" height="81.855" viewBox="0 0 145.898 81.855">
  <g id="Grupo_2" data-name="Grupo 2" transform="translate(-163.218 -437.603)">
    <path id="Trazado_1" data-name="Trazado 1" d="M369.152,509.91a55.3,55.3,0,0,0,1.63-5.748,9.809,9.809,0,0,1-4.478,1.872c.052-.714.088-1.432.088-2.158,0-.081-.005-.162-.006-.243,1.1-1.094,2.877-3.159,2.89-5.086a55.279,55.279,0,0,0-.433-5.958,9.8,9.8,0,0,1-3.57,3.291c-.207-.728-.435-1.446-.7-2.15.658-1.37,1.71-4.025,1.042-5.9a55.226,55.226,0,0,0-2.445-5.451,9.709,9.709,0,0,1-2.313,4.4q-.717-.993-1.513-1.923c.143-1.534.195-4.309-1.049-5.813a55.285,55.285,0,0,0-4.162-4.286,9.761,9.761,0,0,1-.639,4.861c-.646-.438-1.313-.844-1.995-1.231-.386-1.485-1.287-4.14-2.982-5.134a55.251,55.251,0,0,0-5.377-2.6,9.737,9.737,0,0,1,1.06,4.814c-.839-.21-1.692-.386-2.558-.521-.942-1.274-2.516-3.026-4.227-3.34a55.3,55.3,0,0,0-5.943-.608,10.03,10.03,0,0,1,2.512,3.762c-.611.065-1.214.154-1.812.255-1.014-.786-3.85-2.785-6.072-2.414a54.57,54.57,0,0,0-5.8,1.454,9.6,9.6,0,0,1,4.166,3.405c-.635.3-1.253.638-1.862.986-1.214-.391-4.577-1.307-6.543-.2a54.623,54.623,0,0,0-4.949,3.349,9.589,9.589,0,0,1,5.092,1.785q-.734.749-1.414,1.549c-1.156.034-4.82.282-6.339,2.058a54.637,54.637,0,0,0-3.5,4.839,9.517,9.517,0,0,1,5.485-.036c-.318.7-.615,1.41-.878,2.137-1.35.6-4.01,1.986-4.727,3.914a55.258,55.258,0,0,0-1.63,5.747,9.645,9.645,0,0,1,4.7-1.9c-.053.721-.09,1.447-.09,2.182,0,.01,0,.019,0,.029-1.062,1.019-3.1,3.238-3.11,5.3a55.281,55.281,0,0,0,.433,5.958,9.652,9.652,0,0,1,3.766-3.388c.214.761.451,1.512.723,2.247-.658,1.37-1.71,4.025-1.041,5.9a55.315,55.315,0,0,0,2.445,5.451,9.714,9.714,0,0,1,2.313-4.4q.627.868,1.311,1.69c-.157,1.469-.283,4.462,1.026,6.045a55.3,55.3,0,0,0,4.162,4.286,9.665,9.665,0,0,1,.693-4.983q.925.637,1.9,1.2c.362,1.449,1.267,4.257,3.021,5.286a55.337,55.337,0,0,0,5.377,2.6,9.705,9.705,0,0,1-1.057-4.866c.651.168,1.314.306,1.982.43.625,1,2.654,3.954,4.933,4.372a55.317,55.317,0,0,0,5.943.608,9.408,9.408,0,0,1-2.763-4.619c.727-.069,1.445-.167,2.156-.288,1.014.787,3.85,2.785,6.072,2.414a54.6,54.6,0,0,0,5.8-1.454,9.6,9.6,0,0,1-4.166-3.405c.635-.3,1.253-.638,1.861-.986,1.214.391,4.577,1.307,6.543.2a54.573,54.573,0,0,0,4.949-3.348A9.584,9.584,0,0,1,358,524.371q.739-.753,1.421-1.558c1.353-.06,4.679-.379,6.106-2.049a54.571,54.571,0,0,0,3.505-4.839,9.664,9.664,0,0,1-5.287.1c.346-.757.664-1.528.946-2.317C366.1,513.051,368.479,511.718,369.152,509.91Zm-32.159-2.621a3.141,3.141,0,1,1,3.141-3.141A3.141,3.141,0,0,1,336.993,507.289Z" transform="translate(-77.045 -18.188)" fill="#ccc"/>
    <path id="Trazado_2" data-name="Trazado 2" d="M164.79,528.891v6.421h31.331v-6.421Zm17.752,5.735-.368-2.746-1.119,2.746h-1.487l-1.085-2.729-.368,2.729h-2.473l1.1-4.965h2.624l.935,2.586.986-2.586H183.8l1.187,4.965Zm5.766,0h-2.537V531.3h-1.379v-1.637h5.294V531.3h-1.378Zm6.836-1.209a1.644,1.644,0,0,1-.982.888,4.647,4.647,0,0,1-1.581.345,5.929,5.929,0,0,1-1.461-.091,14.572,14.572,0,0,1-1.469-.339l.728-1.431a3.424,3.424,0,0,0,1.744.529,1.415,1.415,0,0,0,.5-.113s.24-.246-.085-.345a1.652,1.652,0,0,0-.643-.1,3.965,3.965,0,0,1-1.461-.429,1.114,1.114,0,0,1-.544-.959s-.071-1.086,1.348-1.544a4.734,4.734,0,0,1,1.948-.26,5.383,5.383,0,0,1,1.843.416l-.7,1.3a4.292,4.292,0,0,0-1.158-.373c-.049,0-.762-.05-.776.2,0,0-.107.212.261.24a8.12,8.12,0,0,1,1.356.232,2.136,2.136,0,0,1,1.059.628A1.179,1.179,0,0,1,195.144,533.416Z" transform="translate(-0.865 -50.243)" fill="#e30a18" fill-rule="evenodd"/>
    <path id="Trazado_3" data-name="Trazado 3" d="M399.354,546.156c-5.588,0-6.733-2.692-6.733-6.734V521a.465.465,0,0,1,.465-.464h6.467a.464.464,0,0,1,.464.464v16.664a4.5,4.5,0,0,0,.531,2.685,2.25,2.25,0,0,0,1.641.613,2.075,2.075,0,0,0,2.181-1.366,8.335,8.335,0,0,0,.34-2.9V521a.464.464,0,0,1,.464-.464h6.467a.465.465,0,0,1,.465.464v24.052a.465.465,0,0,1-.465.465h-6.168a.465.465,0,0,1-.464-.465v-1.718c-1.177,1.88-3.01,2.786-5.648,2.822Z" transform="translate(-126.258 -45.644)" fill="#e30a18"/>
    <path id="Trazado_4" data-name="Trazado 4" d="M411.072,520.431v24.052H404.9V540.9h-.1c-.995,2.857-2.885,4.179-6.019,4.222-5.124,0-6.268-2.26-6.268-6.269V520.431h6.467v16.461a5.147,5.147,0,0,0,.647,3.2,2.7,2.7,0,0,0,1.99.767c3.035,0,2.985-2.943,2.985-4.819V520.431h6.467m0-.929h-6.467a.929.929,0,0,0-.929.929v15.7a8.015,8.015,0,0,1-.307,2.728,1.6,1.6,0,0,1-1.749,1.071,1.77,1.77,0,0,1-1.29-.459,4.231,4.231,0,0,1-.417-2.374V520.431a.929.929,0,0,0-.929-.929h-6.467a.929.929,0,0,0-.929.929v18.422c0,3.738.872,7.2,7.2,7.2a7.029,7.029,0,0,0,5.19-1.951v.382a.929.929,0,0,0,.929.929h6.168a.929.929,0,0,0,.929-.929V520.431a.929.929,0,0,0-.929-.929Z" transform="translate(-125.689 -45.075)" fill="#fff"/>
    <path id="Trazado_5" data-name="Trazado 5" d="M224.707,504.255a25.962,25.962,0,0,1-8.6-1.342A20,20,0,0,1,203.6,490.407c-.1-.3-.207-.606-.313-.919-1.078-3.186-2.419-7.152-6.335-10.711a13.657,13.657,0,0,0-8.79-3.6c-.105,0-.165,0-.171,0H164.715a.465.465,0,0,1-.464-.464v-2.125a.464.464,0,0,1,.464-.464h53.8a.464.464,0,0,1,.464.464v3.055a.465.465,0,0,1-.464.465h-4.782c-.023,0-4.8.3-6.935,3.7-1.53,2.441-1.377,5.895.455,10.267,3.593,8.574,9.92,10.373,14.595,10.373A24.8,24.8,0,0,0,235,496.243c7.674-5.036,10.761-13.988,13.254-26.8a.465.465,0,0,1,.456-.376h9a.413.413,0,0,1,.13-.022l.887.014-3.366-16.123a.466.466,0,0,1,.108-.4,49.152,49.152,0,0,1,17.345-12.258,27.713,27.713,0,0,1,9.992-1.638,47.7,47.7,0,0,1,11.019,1.357.463.463,0,0,1,.313.284l4.118,10.893a.464.464,0,0,1-.112.5l-6.908,6.642a.465.465,0,0,1-.322.13.448.448,0,0,1-.094-.009.464.464,0,0,1-.335-.276l-6.374-15.22c-1.31.15-6.008.7-8.249,1.15-2.337.468-3.337,2.662-4.7,6.22-.807,2.1-2.962,7.244-5.243,12.693-1.522,3.636-3.1,7.4-4.458,10.7-.621,1.506-1.178,2.953-1.718,4.352-2.442,6.341-4.552,11.817-10.621,17.334C243.183,500.772,233.6,504.255,224.707,504.255Z" transform="translate(-0.569 -0.569)" fill="#e30a18"/>
    <path id="Trazado_6" data-name="Trazado 6" d="M282.232,438.532a46.777,46.777,0,0,1,10.9,1.341l4.118,10.893-6.907,6.642-6.509-15.542s-5.977.664-8.635,1.2-3.719,3.055-5.047,6.509-6.243,15.011-9.7,23.379-4.915,14.878-12.221,21.519c-5.9,5.361-15.51,8.754-24.093,8.754a25.644,25.644,0,0,1-8.451-1.315,19.558,19.558,0,0,1-12.221-12.221c-1.2-3.454-2.391-7.837-6.775-11.822a14.055,14.055,0,0,0-9.1-3.723c-.127,0-.2,0-.2,0H164.147v-2.125h53.8v3.055h-4.782s-12.752.664-6.908,14.612c3.285,7.84,9.071,10.658,15.023,10.658a25.3,25.3,0,0,0,13.4-4.282c8-5.247,11.027-14.622,13.455-27.1h9.127v-.022l1.461.022-3.485-16.69a48.535,48.535,0,0,1,17.167-12.135,27.5,27.5,0,0,1,9.824-1.607m0-.929a28.164,28.164,0,0,0-10.16,1.67,49.651,49.651,0,0,0-17.524,12.382.929.929,0,0,0-.217.809l3.248,15.554-.3,0h-.014a.948.948,0,0,0-.2.022h-8.928a.929.929,0,0,0-.912.752c-2.47,12.692-5.515,21.553-13.053,26.5a24.327,24.327,0,0,1-12.894,4.129c-4.534,0-10.673-1.75-14.166-10.088-1.769-4.222-1.935-7.531-.493-9.836,1.932-3.088,6.242-3.463,6.574-3.487h4.752a.929.929,0,0,0,.929-.929v-3.055a.929.929,0,0,0-.929-.929h-53.8a.929.929,0,0,0-.929.929v2.125a.929.929,0,0,0,.929.929h23.3c.008,0,.059,0,.145,0a13.171,13.171,0,0,1,8.478,3.481c3.827,3.479,5.092,7.218,6.208,10.517q.159.471.314.922a20.46,20.46,0,0,0,12.791,12.793,26.436,26.436,0,0,0,8.759,1.368c9.005,0,18.708-3.531,24.718-9,6.15-5.591,8.278-11.115,10.741-17.511.538-1.4,1.094-2.841,1.714-4.341,1.361-3.3,2.935-7.057,4.457-10.693,2.283-5.453,4.439-10.6,5.248-12.707,1.307-3.4,2.217-5.5,4.363-5.931,2.058-.411,6.221-.913,7.865-1.1l6.239,14.9a.929.929,0,0,0,1.5.311l6.908-6.641a.929.929,0,0,0,.225-1L294,439.545a.93.93,0,0,0-.627-.569,47.3,47.3,0,0,0-11.141-1.373Z" transform="translate(0)" fill="#fff"/>
    <path id="Trazado_7" data-name="Trazado 7" d="M452.573,546.137a.465.465,0,0,1-.464-.464V520.965a.465.465,0,0,1,.464-.464h5.845a.465.465,0,0,1,.464.464v.866a5.512,5.512,0,1,1,0,8.9v14.946a.465.465,0,0,1-.464.464Z" transform="translate(-158.999 -45.625)" fill="#e30a18"/>
    <path id="Trazado_8" data-name="Trazado 8" d="M457.85,520.4v1.9a5.048,5.048,0,1,1,0,6.825V545.1H452V520.4h5.845m0-.929H452a.929.929,0,0,0-.929.929V545.1a.929.929,0,0,0,.929.929h5.845a.929.929,0,0,0,.929-.929v-14.11a5.977,5.977,0,1,0,0-10.568V520.4a.929.929,0,0,0-.929-.929Z" transform="translate(-158.43 -45.056)" fill="#fff"/>
    <g id="Grupo_1" data-name="Grupo 1" transform="translate(163.979 446.01)">
      <path id="Trazado_9" data-name="Trazado 9" d="M168.611,465.279h4.246v-2.409h-4.246v-4.16h4.527V456.3h-6.993v16.421h2.466Z" transform="translate(-165.59 -456.302)" fill="#333" fill-rule="evenodd"/>
      <path id="Trazado_10" data-name="Trazado 10" d="M192.436,470.315h-4.475v-5.058h4.122v-2.409h-4.122v-4.138h4.475V456.3h-6.941v16.421h6.941Z" transform="translate(-176.239 -456.302)" fill="#333" fill-rule="evenodd"/>
      <path id="Trazado_11" data-name="Trazado 11" d="M207.743,465.651h.441a6.133,6.133,0,0,1,2.1.219c.845.307.828,1.686.845,2.693a20.438,20.438,0,0,0,.264,4.16H214.1v-.307c-.6-.481-.528-4.51-.528-5.189,0-1.576-.441-2.737-1.9-2.977v-.044c1.656-.285,2.026-2.168,2.026-3.963,0-3.021-1.621-3.941-3.753-3.941h-4.668v16.421h2.467Zm0-6.941h1.832c.934.022,1.55.329,1.55,2.168,0,1.642-.634,2.3-1.445,2.365h-1.937Z" transform="translate(-187.126 -456.302)" fill="#333" fill-rule="evenodd"/>
      <path id="Trazado_12" data-name="Trazado 12" d="M231.777,465.651h.441a6.132,6.132,0,0,1,2.1.219c.846.307.828,1.686.846,2.693a20.436,20.436,0,0,0,.264,4.16h2.713v-.307c-.6-.481-.528-4.51-.528-5.189,0-1.576-.441-2.737-1.9-2.977v-.044c1.655-.285,2.026-2.168,2.026-3.963,0-3.021-1.621-3.941-3.753-3.941h-4.668v16.421h2.466Zm0-6.941h1.832c.933.022,1.55.329,1.55,2.168,0,1.642-.634,2.3-1.445,2.365h-1.938Z" transform="translate(-200.355 -456.302)" fill="#333" fill-rule="evenodd"/>
      <path id="Trazado_13" data-name="Trazado 13" d="M260.208,470.315h-4.475v-5.058h4.122v-2.409h-4.122v-4.138h4.475V456.3h-6.941v16.421h6.941Z" transform="translate(-213.539 -456.302)" fill="#333" fill-rule="evenodd"/>
      <path id="Trazado_14" data-name="Trazado 14" d="M274.018,472.724h2.466V458.711h2.871V456.3h-8.227v2.409h2.889Z" transform="translate(-223.37 -456.302)" fill="#333" fill-rule="evenodd"/>
      <path id="Trazado_15" data-name="Trazado 15" d="M299.614,470.315h-4.474v-5.058h4.122v-2.409h-4.122v-4.138h4.474V456.3h-6.941v16.421h6.941Z" transform="translate(-235.227 -456.302)" fill="#333" fill-rule="evenodd"/>
      <path id="Trazado_16" data-name="Trazado 16" d="M314.921,465.651h.44a6.134,6.134,0,0,1,2.1.219c.845.307.828,1.686.845,2.693a20.435,20.435,0,0,0,.264,4.16h2.713v-.307c-.6-.481-.529-4.51-.529-5.189,0-1.576-.44-2.737-1.9-2.977v-.044c1.655-.285,2.026-2.168,2.026-3.963,0-3.021-1.62-3.941-3.752-3.941h-4.668v16.421h2.467Zm0-6.941h1.832c.933.022,1.55.329,1.55,2.168,0,1.642-.634,2.3-1.445,2.365h-1.937Z" transform="translate(-246.115 -456.302)" fill="#333" fill-rule="evenodd"/>
      <rect id="Rect치ngulo_5" data-name="Rect치ngulo 5" width="2.466" height="16.421" transform="translate(77.199 0)" fill="#333"/>
      <path id="Trazado_17" data-name="Trazado 17" d="M348.543,468.563h2.889l.652,4.16h2.642L351.732,456.3H348.4l-3.154,16.421h2.642Zm1.127-7.072c.124-.767.176-1.511.247-2.277.017-.372.053-.744.088-1.095h.036c.035.351.07.723.088,1.095.07.766.123,1.511.246,2.277l.669,4.663h-2.114Z" transform="translate(-264.164 -456.302)" fill="#333" fill-rule="evenodd"/>
      <rect id="Rect치ngulo_6" data-name="Rect치ngulo 6" width="90.328" height="1.86" transform="translate(0 18.837)" fill="#333"/>
    </g>
  </g>
</svg>
