<svg id="_1.WebpayPlus_FB_80px" data-name="1.WebpayPlus_FB_80px" xmlns="http://www.w3.org/2000/svg" width="200" height="47.642" viewBox="0 0 200 47.642">
  <path id="Trazado_622" data-name="Trazado 622" d="M3.53,17.849a.758.758,0,1,0-.752-.758.756.756,0,0,0,.752.758" transform="translate(2.989 23.779)" fill="#009fe3"/>
  <path id="Trazado_623" data-name="Trazado 623" d="M26.537,20.195a.758.758,0,1,0-.751-.758.755.755,0,0,0,.751.758" transform="translate(38.228 27.371)" fill="#69246f"/>
  <path id="Trazado_624" data-name="Trazado 624" d="M15.586,19.127v0a2.68,2.68,0,0,0-.827-2.039l-.038-.033-.009-.008h0a3.01,3.01,0,0,0-1.982-.664l-.018,0-.022,0h-.113l-.024,0h-.007a.05.05,0,0,0-.016,0,3.006,3.006,0,0,0-1.977.664h0l-.045.041a2.676,2.676,0,0,0-.828,2.029h0v0l0,4.349a.213.213,0,0,0,.068.155.24.24,0,0,0,.165.065h.774a.241.241,0,0,0,.165-.065.213.213,0,0,0,.068-.155l0-4.2a1.849,1.849,0,0,1,.447-1.341,1.766,1.766,0,0,1,1.274-.448,1.761,1.761,0,0,1,1.268.448,1.852,1.852,0,0,1,.446,1.341v4.2a.216.216,0,0,0,.068.155.242.242,0,0,0,.165.065h.775a.238.238,0,0,0,.165-.065.21.21,0,0,0,.069-.155Z" transform="translate(13.549 23.849)" fill="#d6006d"/>
  <path id="Trazado_625" data-name="Trazado 625" d="M26.247,19.127v0a2.678,2.678,0,0,0-.828-2.039l-.037-.033-.009-.008h0a3.011,3.011,0,0,0-1.983-.664l-.017,0-.022,0h-.113l-.023,0h-.007a.05.05,0,0,0-.016,0,3.006,3.006,0,0,0-1.977.664h0l-.045.041a2.677,2.677,0,0,0-.828,2.029h0v0l0,4.349a.213.213,0,0,0,.068.155.24.24,0,0,0,.165.065h.774a.241.241,0,0,0,.165-.065.213.213,0,0,0,.068-.155l0-4.2a1.85,1.85,0,0,1,.447-1.341,2.026,2.026,0,0,1,2.543,0,1.852,1.852,0,0,1,.446,1.341v4.2a.216.216,0,0,0,.068.155.242.242,0,0,0,.165.065h.775a.238.238,0,0,0,.165-.065.211.211,0,0,0,.069-.155Z" transform="translate(29.878 23.849)" fill="#d6006d"/>
  <path id="Trazado_626" data-name="Trazado 626" d="M20.164,18.419a.114.114,0,0,0-.014-.016,2.912,2.912,0,0,0-1.962-.659.4.4,0,0,0-.045,0,2.8,2.8,0,0,0-1.91.633v-.432h0V15.752a.212.212,0,0,0-.068-.155A.244.244,0,0,0,16,15.532h-.762a.248.248,0,0,0-.165.065.211.211,0,0,0-.067.155v9.025a.212.212,0,0,0,.067.154.242.242,0,0,0,.165.065H16a.24.24,0,0,0,.165-.065.208.208,0,0,0,.068-.154v-.451a2.5,2.5,0,0,0,1.909.765h.048a2.909,2.909,0,0,0,1.959-.66,4.135,4.135,0,0,0,1.012-3.079,3.846,3.846,0,0,0-1-2.932m-.229,2.932v.016h0v.016a4.064,4.064,0,0,1-.339,1.854,1.537,1.537,0,0,1-1.484.79h-.043a1.54,1.54,0,0,1-1.5-.791,4.055,4.055,0,0,1-.339-1.865V21.33a3.508,3.508,0,0,1,.339-1.733,1.539,1.539,0,0,1,1.5-.79H18.1a1.537,1.537,0,0,1,1.5.791,3.507,3.507,0,0,1,.338,1.732Z" transform="translate(21.717 22.552)" fill="#d6006d"/>
  <path id="Trazado_627" data-name="Trazado 627" d="M12.943,18.8v0a2.228,2.228,0,0,0-.759-1.793,3.424,3.424,0,0,0-2.22-.626H9.917a3.066,3.066,0,0,0-2.411.863l0,0-.035.041c-.046.051-.09.1-.133.158l0,0-.062.074a.208.208,0,0,0-.048.163.249.249,0,0,0,.083.157l.035.03a.342.342,0,0,0,.045.045l.136.111.361.313a.238.238,0,0,0,.167.059.206.206,0,0,0,.151-.074l.233-.276h0a1.4,1.4,0,0,1,.473-.347,2.68,2.68,0,0,1,1.049-.168h.022a2,2,0,0,1,1.323.347,1.232,1.232,0,0,1,.359,1s0,.012,0,.023v.455H9.677a3.142,3.142,0,0,0-1.955.561,1.958,1.958,0,0,0-.748,1.6v.025a2.093,2.093,0,0,0,.585,1.468,2.911,2.911,0,0,0,2.209.683h.53a2.649,2.649,0,0,0,2.042-.7,2.82,2.82,0,0,0,.605-1.982V18.8Zm-1.281,2.242a1.393,1.393,0,0,1-.3,1.054,2.117,2.117,0,0,1-1.545.439H9.8a2.125,2.125,0,0,1-1.216-.265.842.842,0,0,1-.327-.75v-.017a.9.9,0,0,1,.332-.772,1.938,1.938,0,0,1,1.168-.282h1.907Z" transform="translate(9.415 23.85)" fill="#d6006d"/>
  <path id="Trazado_628" data-name="Trazado 628" d="M23.608,18.806V18.8a2.223,2.223,0,0,0-.759-1.79,3.42,3.42,0,0,0-2.218-.626h-.048a3.068,3.068,0,0,0-2.411.863l0,0-.035.042c-.045.05-.09.1-.134.158a0,0,0,0,0,0,0l-.062.073a.21.21,0,0,0-.048.163.244.244,0,0,0,.083.157l.035.031a.443.443,0,0,0,.045.045l.136.112.361.313a.247.247,0,0,0,.167.059.211.211,0,0,0,.151-.074l.232-.276a1.4,1.4,0,0,1,.473-.347,2.662,2.662,0,0,1,1.049-.167h.022a1.989,1.989,0,0,1,1.323.346,1.235,1.235,0,0,1,.361,1s0,.013,0,.023v.456H20.341a3.143,3.143,0,0,0-1.955.559,1.963,1.963,0,0,0-.748,1.6v.025a2.084,2.084,0,0,0,.584,1.466,2.913,2.913,0,0,0,2.209.682h.53a2.645,2.645,0,0,0,2.042-.7,2.814,2.814,0,0,0,.606-1.979V18.806ZM18.92,21.524v-.017a.9.9,0,0,1,.331-.771,1.934,1.934,0,0,1,1.168-.282h1.907v.593a1.389,1.389,0,0,1-.3,1.052,2.114,2.114,0,0,1-1.546.439h-.018a2.118,2.118,0,0,1-1.216-.265.839.839,0,0,1-.327-.749" transform="translate(25.749 23.857)" fill="#d6006d"/>
  <path id="Trazado_629" data-name="Trazado 629" d="M6.16,17.707H4.852l0-1.326v-.642a.217.217,0,0,0-.225-.209H3.839a.238.238,0,0,0-.159.061.2.2,0,0,0-.067.148v1.183h0v6.215a1.865,1.865,0,0,0,.465,1.3,1.843,1.843,0,0,0,1.369.541h.381v-.005H6.16a.206.206,0,0,0,.154-.069.239.239,0,0,0,.064-.165v-.769a.244.244,0,0,0-.064-.166.207.207,0,0,0-.154-.069H5.552a1.035,1.035,0,0,1-.308-.049.592.592,0,0,1-.121-.06.479.479,0,0,1-.088-.072.853.853,0,0,1-.183-.6V18.946H6.16a.213.213,0,0,0,.154-.069.244.244,0,0,0,.064-.167v-.768a.244.244,0,0,0-.064-.166.207.207,0,0,0-.154-.069" transform="translate(4.268 22.549)" fill="#d6006d"/>
  <path id="Trazado_630" data-name="Trazado 630" d="M9.583,17.314l-.072-.081a.07.07,0,0,0-.018-.028l-.043-.045L9.39,17.1l-.05-.055,0,0a2.12,2.12,0,0,0-1.589-.666H7.7a1.632,1.632,0,0,0-1.21.545l-.205.243v-.542a.212.212,0,0,0-.068-.155.243.243,0,0,0-.165-.065H5.294a.245.245,0,0,0-.165.065.212.212,0,0,0-.068.155v6.846a.212.212,0,0,0,.068.155.243.243,0,0,0,.165.065h.762a.244.244,0,0,0,.165-.065.209.209,0,0,0,.068-.155v-.118s0,0,0,0V19.287c0-.005,0-.011,0-.016v-.329a1.723,1.723,0,0,1,.34-.965,1.149,1.149,0,0,1,.935-.436,1.214,1.214,0,0,1,.49.078,1.3,1.3,0,0,1,.407.31l.037.037.165.185a.214.214,0,0,0,.156.07.245.245,0,0,0,.167-.064l.572-.52a.254.254,0,0,0,.08-.162.219.219,0,0,0-.053-.163" transform="translate(6.485 23.849)" fill="#d6006d"/>
  <path id="Trazado_631" data-name="Trazado 631" d="M17.763,19.949l-.009-.006h0a3.262,3.262,0,0,0-1.616-.471L15,19.376a1.779,1.779,0,0,1-.938-.273.67.67,0,0,1-.237-.561v-.006h0v-.015a.841.841,0,0,1,.351-.718,2,2,0,0,1,1.159-.281h.006a3.127,3.127,0,0,1,1.733.467h0l.288.2a.2.2,0,0,0,.161.031.233.233,0,0,0,.144-.1l.425-.62a.246.246,0,0,0,.041-.171.21.21,0,0,0-.034-.089.222.222,0,0,0-.067-.078l-.049-.035a4.618,4.618,0,0,0-2.644-.757,3.353,3.353,0,0,0-2.019.573,1.918,1.918,0,0,0-.8,1.566v.03a1.748,1.748,0,0,0,.624,1.4,3.128,3.128,0,0,0,1.758.588l1.17.095a1.55,1.55,0,0,1,.855.266.688.688,0,0,1,.227.571v.018a.856.856,0,0,1-.414.772,2.686,2.686,0,0,1-1.4.294h-.023a2.91,2.91,0,0,1-1.939-.588l-.247-.209a.206.206,0,0,0-.162-.047.241.241,0,0,0-.155.086l-.49.592a.245.245,0,0,0-.057.17.216.216,0,0,0,.074.153l.233.2h0l.013.01.031.025,0,0a4.489,4.489,0,0,0,2.716.77h.019a3.914,3.914,0,0,0,2.229-.582,1.966,1.966,0,0,0,.879-1.642v-.034a1.745,1.745,0,0,0-.7-1.5" transform="translate(17.518 23.846)" fill="#d6006d"/>
  <path id="Trazado_632" data-name="Trazado 632" d="M29.374,24.7,28.42,23.35l-1.912-2.792,1.486-1.578.865-.914.052-.059a.165.165,0,0,0,.008-.245.246.246,0,0,0-.165-.065H27.76a.326.326,0,0,0-.179.084h0l-3.335,3.558v-5.6a.217.217,0,0,0-.068-.155.244.244,0,0,0-.166-.065H23.25a.24.24,0,0,0-.165.065.208.208,0,0,0-.069.155v9.04a.216.216,0,0,0,.068.156.246.246,0,0,0,.166.065h.762a.249.249,0,0,0,.165-.065.214.214,0,0,0,.068-.156V22.957l1.445-1.566.973,1.456h0l1.367,2.043a.227.227,0,0,0,.2.117h.993a.24.24,0,0,0,.165-.065.184.184,0,0,0-.008-.245" transform="translate(33.987 22.536)" fill="#d6006d"/>
  <path id="Trazado_633" data-name="Trazado 633" d="M22.154,15.549h.135l.2.589.2-.589h.133v.7h-.089v-.483c0-.033,0-.067,0-.105l-.2.588h-.094l-.2-.588v.1c0,.037,0,.063,0,.077v.413h-.089Z" transform="translate(32.667 22.578)" fill="#d6006d"/>
  <path id="Trazado_634" data-name="Trazado 634" d="M22.578,15.549H22.9a.3.3,0,0,1,.129.024.161.161,0,0,1,.1.164.18.18,0,0,1-.024.1.209.209,0,0,1-.074.065.149.149,0,0,1,.063.043.159.159,0,0,1,.021.089l.006.092a.337.337,0,0,0,.005.06.058.058,0,0,0,.031.041v.017h-.116c0-.007,0-.014-.008-.023a.371.371,0,0,1,0-.056l-.006-.117a.1.1,0,0,0-.05-.092.2.2,0,0,0-.083-.013h-.21v.3h-.094Zm.308.319a.17.17,0,0,0,.1-.027.109.109,0,0,0,.037-.1.1.1,0,0,0-.053-.1.176.176,0,0,0-.075-.014h-.226v.238Z" transform="translate(33.315 22.578)" fill="#d6006d"/>
  <path id="Trazado_635" data-name="Trazado 635" d="M22.527,15.886a.046.046,0,0,1-.046-.051.048.048,0,1,1,.046.051" transform="translate(33.168 22.936)" fill="#d6006d"/>
  <path id="Trazado_636" data-name="Trazado 636" d="M22.906,15.886a.048.048,0,0,1-.049-.051.048.048,0,0,1,.049-.052.051.051,0,0,1,0,.1Z" transform="translate(33.744 22.936)" fill="#d6006d"/>
  <path id="Trazado_637" data-name="Trazado 637" d="M42.08,9.864a.433.433,0,0,0-.045-.049A9.448,9.448,0,0,0,35.66,7.674a1.313,1.313,0,0,0-.142,0,9.091,9.091,0,0,0-6.2,2.056l0,0V8.321h0V1.2a.691.691,0,0,0-.221-.5.787.787,0,0,0-.537-.211H26.08A.8.8,0,0,0,25.545.7a.688.688,0,0,0-.221.5V8.321h0V23.433h0v7.079a.7.7,0,0,0,.221.5.792.792,0,0,0,.537.211h2.476a.784.784,0,0,0,.536-.211.679.679,0,0,0,.223-.5V29.048a8.138,8.138,0,0,0,6.2,2.485h.153a9.469,9.469,0,0,0,6.365-2.145c2.669-2.527,3.278-6.4,3.287-10-.007-3.581-.618-7.006-3.242-9.524m-.744,9.523v.107a13.186,13.186,0,0,1-1.1,6.021c-.842,1.514-2.194,2.525-4.819,2.565a.588.588,0,0,0-.1,0h-.044c-2.644-.026-4.013-1.039-4.858-2.567a13.135,13.135,0,0,1-1.1-6.059v-.136a11.367,11.367,0,0,1,1.1-5.626c.845-1.528,2.215-2.542,4.858-2.566h.1c2.645.024,4.01,1.036,4.863,2.569a11.4,11.4,0,0,1,1.1,5.623Z" transform="translate(37.522 -0.489)" fill="#6b1a6b"/>
  <path id="Trazado_638" data-name="Trazado 638" d="M51.1,24.987c2.623-2.517,3.235-5.943,3.241-9.524-.009-3.6-.618-7.473-3.287-10a9.462,9.462,0,0,0-6.364-2.146h-.153a8.138,8.138,0,0,0-6.2,2.485V4.339a.68.68,0,0,0-.222-.5.783.783,0,0,0-.536-.211H35.1a.788.788,0,0,0-.537.211.694.694,0,0,0-.222.5v7.08h0V26.529h0v7.118a.686.686,0,0,0,.222.5.789.789,0,0,0,.534.211h2.477a.783.783,0,0,0,.537-.211.691.691,0,0,0,.221-.5V26.529h0v-1.4l0,0a9.1,9.1,0,0,0,6.2,2.055,1.309,1.309,0,0,0,.142,0,9.447,9.447,0,0,0,6.375-2.141.573.573,0,0,0,.046-.049m-.744-9.452a11.4,11.4,0,0,1-1.1,5.622c-.852,1.533-2.217,2.546-4.863,2.57h-.1c-2.644-.024-4.013-1.039-4.858-2.567a11.364,11.364,0,0,1-1.1-5.625V15.4a13.14,13.14,0,0,1,1.1-6.06c.845-1.527,2.215-2.54,4.858-2.567h.044a.65.65,0,0,0,.1,0c2.626.04,3.979,1.051,4.819,2.565a13.174,13.174,0,0,1,1.1,6.02v.178Z" transform="translate(51.329 3.844)" fill="#6b1a6b"/>
  <path id="Trazado_639" data-name="Trazado 639" d="M61.16,28.876c-.218.59-.609,1.543-.87,2.115A6.792,6.792,0,0,1,59.152,32.7a4.9,4.9,0,0,1-2.1,1.265,6.728,6.728,0,0,1-1.3.269c-.628.044-1.544.081-2.036.081a1.047,1.047,0,0,1-.895-1.144V31.486c0-.629.256-1.144.567-1.144s1.079-.053,1.7-.117a2.005,2.005,0,0,0,.912-.385,2.428,2.428,0,0,0,.657-.817c.263-.571.649-1.525.859-2.118l.458-1.293a3.71,3.71,0,0,0-.011-2.152L51.04,4.508a.749.749,0,0,1,.751-1.074h2.423a1.709,1.709,0,0,1,1.511,1.084l4.541,13.4c.2.6.529.595.726,0l4.428-13.4a1.694,1.694,0,0,1,1.5-1.087H69.39a.747.747,0,0,1,.749,1.073Z" transform="translate(76.809 4.021)" fill="#6b1a6b"/>
  <path id="Trazado_640" data-name="Trazado 640" d="M62.107,11.186v-.016A7.139,7.139,0,0,0,59.668,5.42c-1.662-1.365-4.049-2.006-7.121-2.007h-.153c-3.227-.009-5.788.693-7.738,2.767l-.009-.006-.112.134c-.146.161-.29.33-.431.508a.014.014,0,0,1,0,.006l-.2.236a.679.679,0,0,0-.154.524.791.791,0,0,0,.268.505l.112.1a1.079,1.079,0,0,0,.144.143l.436.359,1.161,1a.762.762,0,0,0,.533.19.671.671,0,0,0,.486-.236l.744-.884v0a4.468,4.468,0,0,1,1.518-1.113A8.6,8.6,0,0,1,52.521,7.1h.018l.05,0c2.148.006,3.483.442,4.247,1.113a3.953,3.953,0,0,1,1.156,3.208.626.626,0,0,0,0,.073v1.462H51.622a10.087,10.087,0,0,0-6.274,1.8,6.293,6.293,0,0,0-2.4,5.127v.08a6.691,6.691,0,0,0,1.877,4.706c1.631,1.608,3.8,2.191,7.088,2.191h1.7c3.007,0,5.165-.741,6.554-2.238s1.942-3.663,1.942-6.354V11.186ZM47.06,19.909v-.054a2.878,2.878,0,0,1,1.066-2.477,6.221,6.221,0,0,1,3.747-.9H58v1.9c-.006,1.866-.416,2.9-.964,3.378-1.325,1.221-2.964,1.4-4.962,1.409h-.058a6.811,6.811,0,0,1-3.9-.851,2.7,2.7,0,0,1-1.049-2.4" transform="translate(64.511 3.989)" fill="#6b1a6b"/>
  <path id="Trazado_641" data-name="Trazado 641" d="M33.332,3.452A1.679,1.679,0,0,0,31.81,4.6L27.48,19.874c-.179.634-.494.639-.7.015l-5.037-15.3a1.764,1.764,0,0,0-1.568-1.135h-.9a1.76,1.76,0,0,0-1.566,1.136l-5,15.3c-.2.625-.519.62-.7-.013L7.64,4.6a1.684,1.684,0,0,0-1.525-1.15H4.275a.826.826,0,0,0-.834,1.14l6.683,21.076a1.744,1.744,0,0,0,1.557,1.14h1.264A1.587,1.587,0,0,0,14.35,25.8l4.995-14.909c.209-.623.552-.623.763,0L25.1,25.674a1.786,1.786,0,0,0,1.577,1.133H27.9a1.611,1.611,0,0,0,1.44-1.056L36.008,4.592a.828.828,0,0,0-.835-1.141Z" transform="translate(3.923 4.049)" fill="#6b1a6b"/>
  <path id="Trazado_642" data-name="Trazado 642" d="M20.706,13.226a8.372,8.372,0,0,1,.632-3.2,5.37,5.37,0,0,1,9.765,0,8.378,8.378,0,0,1,.632,3.2Zm15.113,1.347c0-6.932-3.678-11.239-9.6-11.239-6.01,0-9.6,4.441-9.6,11.877,0,7.658,3.62,11.876,10.19,11.876A10.7,10.7,0,0,0,35.3,23.509l.294-.293L32.768,20.74,32.51,21a7.022,7.022,0,0,1-5.6,2.439c-3.892,0-6.1-2.473-6.215-6.97H35.819Z" transform="translate(24.195 3.868)" fill="#6b1a6b"/>
  <path id="Trazado_643" data-name="Trazado 643" d="M2.874,8.257A2.392,2.392,0,1,0,.5,5.865,2.386,2.386,0,0,0,2.874,8.257" transform="translate(-0.5 4.081)" fill="#d6006d"/>
  <path id="Trazado_644" data-name="Trazado 644" d="M59.932,15.566a2.392,2.392,0,1,0-2.373-2.39,2.385,2.385,0,0,0,2.373,2.39" transform="translate(86.895 15.275)" fill="#d6006d"/>
  <path id="Trazado_645" data-name="Trazado 645" d="M67.115,5.987H64.484V9.934h2.632A1.9,1.9,0,0,0,69.2,7.97a1.92,1.92,0,0,0-2.086-1.984m.142,6.478H64.484V17.89H61.67V3.476h5.587A4.442,4.442,0,0,1,72.015,7.97a4.443,4.443,0,0,1-4.757,4.494" transform="translate(93.191 4.086)" fill="#d6006d"/>
  <path id="Trazado_646" data-name="Trazado 646" d="M66.4,17.89V3.476h2.813v11.9h6.538v2.51Z" transform="translate(100.437 4.087)" fill="#d6006d"/>
  <path id="Trazado_647" data-name="Trazado 647" d="M75.686,18.011a5.01,5.01,0,0,1-5.3-5.061V3.476H73.2v9.373a2.5,2.5,0,1,0,5,0V3.476H80.99V12.95a5.011,5.011,0,0,1-5.3,5.061" transform="translate(106.534 4.086)" fill="#d6006d"/>
  <path id="Trazado_648" data-name="Trazado 648" d="M80.572,18.082a6.759,6.759,0,0,1-5.256-1.9l1.819-1.819a4.712,4.712,0,0,0,3.476,1.213c1.658,0,2.548-.627,2.548-1.778a1.6,1.6,0,0,0-.445-1.214,2.144,2.144,0,0,0-1.274-.505L79.7,11.836a4.888,4.888,0,0,1-2.789-1.193,3.8,3.8,0,0,1-1.031-2.83c0-2.567,1.9-4.366,5.014-4.366a6.168,6.168,0,0,1,4.649,1.677L83.766,6.883a4.007,4.007,0,0,0-2.951-.99c-1.5,0-2.224.829-2.224,1.819a1.385,1.385,0,0,0,.425,1.031,2.47,2.47,0,0,0,1.334.566l1.7.243a4.76,4.76,0,0,1,2.75,1.112,4.032,4.032,0,0,1,1.112,3.052c0,2.79-2.326,4.367-5.337,4.367" transform="translate(114.091 4.041)" fill="#d6006d"/>
</svg>
