<?xml version="1.0" encoding="utf-8"?>
<!-- Generator: Adobe Illustrator 24.0.3, SVG Export Plug-In . SVG Version: 6.00 Build 0)  -->
<svg version="1.1" id="Capa_1" xmlns="http://www.w3.org/2000/svg" xmlns:xlink="http://www.w3.org/1999/xlink" x="0px" y="0px"
	 width="20px" height="20px" viewBox="0 0 20 20" style="enable-background:new 0 0 20 20;" xml:space="preserve">
<style type="text/css">
	.st0{fill-rule:evenodd;clip-rule:evenodd;fill:#FFFFFF;}
</style>
<path class="st0" d="M17.052,2.906C15.181,1.033,12.693,0.001,10.042,0C4.579,0,0.133,4.446,0.131,9.91
	c-0.001,1.747,0.456,3.452,1.323,4.955L0.048,20l5.254-1.378c1.448,0.79,3.077,1.206,4.736,1.206h0.004
	c5.462,0,9.908-4.446,9.91-9.91C19.953,7.27,18.923,4.78,17.052,2.906z M10.042,18.154h-0.003c-1.478-0.001-2.928-0.398-4.193-1.148
	l-0.301-0.179l-3.118,0.818l0.832-3.04l-0.196-0.312c-0.825-1.312-1.26-2.827-1.259-4.384c0.002-4.542,3.697-8.237,8.241-8.237
	c2.2,0.001,4.268,0.859,5.824,2.416s2.411,3.627,2.41,5.828C18.277,14.459,14.582,18.154,10.042,18.154z M14.56,11.985
	c-0.248-0.124-1.465-0.723-1.692-0.806c-0.227-0.083-0.392-0.124-0.557,0.124c-0.165,0.248-0.64,0.806-0.784,0.971
	c-0.145,0.165-0.289,0.186-0.536,0.062c-0.248-0.124-1.046-0.385-1.991-1.229C8.263,10.451,7.766,9.64,7.621,9.392
	C7.477,9.144,7.62,9.023,7.73,8.886c0.268-0.333,0.536-0.682,0.619-0.847c0.083-0.165,0.041-0.31-0.021-0.434
	C8.266,7.482,7.771,6.263,7.565,5.767C7.364,5.284,7.16,5.349,7.007,5.342C6.863,5.335,6.698,5.333,6.533,5.333
	c-0.165,0-0.433,0.062-0.66,0.31C5.646,5.891,5.006,6.49,5.006,7.709s0.887,2.396,1.011,2.562s1.746,2.667,4.23,3.739
	c0.591,0.255,1.052,0.408,1.412,0.522c0.593,0.188,1.133,0.162,1.56,0.098c0.476-0.071,1.465-0.599,1.672-1.177
	c0.206-0.578,0.206-1.074,0.144-1.178C14.973,12.171,14.807,12.109,14.56,11.985z"/>
</svg>
